<svg width="254" height="106" viewBox="0 0 254 106" fill="none" xmlns="http://www.w3.org/2000/svg">
<path d="M41.648 104V87.008H0.464V68.432L45.824 2.47999H67.136V66.992H80.384V87.008H67.136V104H41.648ZM41.648 66.992V39.776L23.36 66.992H41.648ZM125.544 105.584C112.968 105.584 103.368 101.024 96.7438 91.904C90.1198 82.688 86.8078 69.68 86.8078 52.88C86.8078 35.984 90.1198 23.12 96.7438 14.288C103.368 5.36 112.968 0.895997 125.544 0.895997C138.12 0.895997 147.72 5.36 154.344 14.288C160.968 23.12 164.28 35.936 164.28 52.736C164.28 69.632 160.968 82.688 154.344 91.904C147.72 101.024 138.12 105.584 125.544 105.584ZM125.544 84.56C130.152 84.56 133.56 82.064 135.768 77.072C138.072 71.984 139.224 63.872 139.224 52.736C139.224 41.696 138.072 33.824 135.768 29.12C133.56 24.32 130.152 21.92 125.544 21.92C120.936 21.92 117.48 24.32 115.176 29.12C112.968 33.824 111.864 41.696 111.864 52.736C111.864 63.872 112.968 71.984 115.176 77.072C117.48 82.064 120.936 84.56 125.544 84.56ZM214.336 104V87.008H173.152V68.432L218.512 2.47999H239.824V66.992H253.072V87.008H239.824V104H214.336ZM214.336 66.992V39.776L196.048 66.992H214.336Z" fill="#2B2D42"/>
</svg>
