<svg width="24" height="25" viewBox="0 0 24 25" fill="none" xmlns="http://www.w3.org/2000/svg">
<g clip-path="url(#clip0)">
<path d="M10.5002 0.32373C4.71056 0.32373 0.000829897 4.15901 0.000829897 8.87325C0.000829897 11.2611 1.20076 13.5005 3.31864 15.1114C2.61818 16.2048 1.71223 17.3118 0.569298 17.5938C0.207818 17.6837 -0.0336681 18.0257 0.00382973 18.3962C0.0413276 18.7682 0.34581 19.0547 0.719289 19.0712C0.735788 19.0712 0.800285 19.0742 0.908279 19.0742C1.68373 19.0742 4.67757 18.9497 8.07487 17.1873C8.85333 17.3448 9.66778 17.4228 10.5002 17.4228C16.2884 17.4228 20.9996 13.5875 20.9996 8.87325C20.9996 4.15901 16.2884 0.32373 10.5002 0.32373Z" fill="white"/>
<path d="M23.4295 22.7883C22.4741 22.5529 21.7511 21.8539 21.2457 21.1609C23.0051 19.7825 23.9995 17.8866 23.9995 15.8662C23.9995 14.1743 23.2886 12.6189 22.1081 11.3755C20.7747 15.7087 16.0844 18.9231 10.5003 18.9231C9.7548 18.9231 9.01834 18.8661 8.30288 18.7536C7.8769 18.9591 7.45992 19.1405 7.05045 19.3025C8.56386 21.6274 11.5577 23.2158 15 23.2158C15.7035 23.2158 16.3859 23.1513 17.0339 23.0253C19.1863 24.1218 21.1497 24.3243 22.3046 24.3228C22.9376 24.3228 23.3275 24.2628 23.371 24.2553C23.722 24.1983 23.9845 23.9013 23.9995 23.5458C24.013 23.1903 23.776 22.8723 23.4295 22.7883Z" fill="white"/>
</g>
<defs>
<clipPath id="clip0">
<rect width="24" height="24" fill="white" transform="translate(0 0.323242)"/>
</clipPath>
</defs>
</svg>
