<svg width="200" height="36" viewBox="0 0 200 36" fill="none" xmlns="http://www.w3.org/2000/svg">
<path d="M36.698 15.9842C36.6758 15.2978 36.3521 14.9434 35.7238 14.9202H32.3677C31.5734 14.9688 31.163 15.4046 31.1439 16.2243V22.2607C31.163 23.1069 31.6167 23.5384 32.4989 23.5627H35.5747C35.8941 23.5627 36.1596 23.4443 36.3712 23.2021C36.5922 23.0201 36.698 22.7864 36.698 22.4966V15.9842ZM26.8348 15.1275C26.857 13.6171 27.1934 12.4695 27.846 11.6846C28.1876 11.3557 28.615 11.0807 29.1353 10.8533C29.6758 10.6111 30.1994 10.4937 30.7071 10.4937H36.8672C39.5845 10.5169 40.9659 12.003 41.0092 14.9551V24.0408C40.9891 25.089 40.5787 25.9987 39.7855 26.7592C38.9996 27.5588 38.0614 27.966 36.9688 27.9903H31.1439V34.5407H26.8348V15.1275Z" fill="#008AC9"/>
<path d="M48.7877 22.6859C48.7877 22.9387 48.904 23.1386 49.1314 23.2888C49.3345 23.4686 49.5905 23.5628 49.9141 23.5628H53.2237C53.9715 23.5628 54.3597 23.2729 54.3819 22.6859V21.4505C54.3819 20.7757 53.9874 20.4351 53.192 20.4351H49.9141C49.4826 20.4351 49.1843 20.507 49.0183 20.6424C48.8649 20.8021 48.7877 21.1184 48.7877 21.587V22.6859ZM54.3819 15.8774C54.4041 15.2153 54.0181 14.899 53.2227 14.9202H44.5441V10.4937H54.3153C57.1616 10.5402 58.6064 11.9152 58.6551 14.6304V23.8906C58.6307 25.0615 58.2722 26.0272 57.5762 26.7951C56.8485 27.5905 55.9103 27.9903 54.7606 27.9903H48.8543C45.9794 27.966 44.5219 26.6534 44.4775 24.044V20.4711C44.4997 17.7443 45.8927 16.3587 48.6502 16.3111H54.3819V15.8774Z" fill="#008AC9"/>
<path d="M70.7574 30.1132C71.099 30.092 71.3952 29.9693 71.6353 29.7493C71.8659 29.5441 71.9822 29.3082 71.9822 29.0406V27.9903H66.4652C65.7459 27.9903 65.1705 27.8983 64.7411 27.7153C64.2873 27.5493 63.8357 27.2394 63.3809 26.7994C62.9504 26.3329 62.6405 25.8453 62.4522 25.3355C62.2565 24.869 62.1571 24.2756 62.1571 23.5627V10.4937H66.4652V22.1602C66.4652 23.0952 66.847 23.5627 67.6202 23.5627H70.6622C71.0239 23.5627 71.3381 23.4443 71.6014 23.2021C71.8553 22.9969 71.9822 22.7536 71.9822 22.468V10.4937H76.2554V29.7736C76.231 31.2005 75.8651 32.3428 75.1596 33.2091C74.4435 34.0754 73.4641 34.5185 72.2149 34.5407H62.1571V30.1132H70.7574Z" fill="#008AC9"/>
<path d="M79.639 23.5628H87.317C88.0193 23.5384 88.3842 23.2571 88.4064 22.7176V22.3199C88.4064 22.2047 88.3715 22.0767 88.3038 21.9392C88.1325 21.6049 87.922 21.4389 87.6713 21.4389H83.8646C82.735 21.4167 81.7714 21.0274 80.9612 20.2764C80.1414 19.5826 79.7215 18.729 79.6972 17.7274V14.4262C79.7416 11.8507 81.141 10.5402 83.8974 10.4937H92.8023V14.9202H85.2576C84.3723 14.9202 83.9259 15.192 83.9259 15.7336V16.1619C83.9259 16.7236 84.3818 17.0049 85.2904 17.0049H89.0855C90.0966 17.0282 90.9587 17.4153 91.6769 18.1705C92.4024 18.931 92.779 19.8354 92.8023 20.8857V24.1149C92.779 25.0224 92.3591 25.9278 91.552 26.8311C91.1586 27.2743 90.7556 27.5789 90.3526 27.7513C89.9359 27.91 89.37 27.9903 88.6476 27.9903H79.639V23.5628Z" fill="#008AC9"/>
<path d="M100.176 22.6859C100.176 22.9387 100.292 23.1386 100.525 23.2888C100.726 23.4686 100.983 23.5628 101.302 23.5628H104.618C105.366 23.5628 105.752 23.2729 105.774 22.6859V21.4505C105.774 20.7757 105.374 20.4351 104.582 20.4351H101.302C100.872 20.4351 100.574 20.507 100.409 20.6424C100.256 20.8021 100.176 21.1184 100.176 21.587V22.6859ZM105.774 15.8774C105.793 15.2153 105.407 14.899 104.611 14.9202H95.9341V10.4937H105.708C108.552 10.5402 109.997 11.9152 110.042 14.6304V23.8906C110.019 25.0615 109.657 26.0272 108.965 26.7951C108.243 27.5905 107.303 27.9903 106.153 27.9903H100.241C97.3684 27.966 95.9098 26.6534 95.8696 24.044V20.4711C95.8886 17.7443 97.2806 16.3587 100.04 16.3111H105.774V15.8774Z" fill="#008AC9"/>
<path d="M113.545 7.98375C113.572 6.78854 114.012 5.82919 114.875 5.10994C115.712 4.37906 116.812 4.00357 118.173 3.98242H120.909V8.25876H119.251C118.341 8.27991 117.876 8.71569 117.856 9.55763V10.4948H120.909V14.9255H117.856V27.9925H113.545V7.98375Z" fill="#008AC9"/>
<path d="M133.164 15.7949V15.6923C133.164 15.4649 133.072 15.2713 132.886 15.1275C132.685 14.9879 132.44 14.9202 132.145 14.9202H129.145C128.76 14.9202 128.45 15.0281 128.21 15.2491C127.912 15.4533 127.761 15.7219 127.761 16.053V17.83L133.164 15.7949ZM127.829 22.0523V22.3284C127.829 22.6827 127.922 22.9641 128.109 23.1682C128.244 23.4295 128.426 23.5628 128.668 23.5628H137.52V27.9903H128.109C127.25 27.9903 126.58 27.91 126.108 27.7492C125.59 27.5789 125.126 27.3007 124.721 26.9136C124.247 26.445 123.924 25.968 123.763 25.4772C123.585 24.9653 123.497 24.2862 123.497 23.4401L123.46 14.5796C123.508 11.9025 124.906 10.5402 127.654 10.4937H133.463C136.146 10.5402 137.505 11.9501 137.549 14.7309V18.2308L127.829 22.0523Z" fill="#008AC9"/>
<path d="M146.67 27.9903C146.018 27.9903 145.422 27.93 144.882 27.82C144.316 27.728 143.752 27.4657 143.176 27.0225C142.585 26.5074 142.175 25.9299 141.951 25.2921C141.714 24.6649 141.6 23.9541 141.6 23.1545V14.8927C141.575 14.2189 141.643 13.6276 141.801 13.1146C141.946 12.6027 142.25 12.1014 142.71 11.6106C143.235 11.0955 143.77 10.7528 144.335 10.5846C144.879 10.4481 145.491 10.3794 146.178 10.3794H152.782V11.4149H146.331C145.192 11.4149 144.297 11.6486 143.642 12.1172C142.973 12.6281 142.631 13.5092 142.631 14.7509V23.018C142.631 23.5998 142.72 24.1656 142.897 24.7114C143.077 25.2477 143.379 25.7183 143.811 26.1298C144.281 26.4863 144.749 26.7084 145.204 26.7993C145.679 26.904 146.189 26.9538 146.73 26.9538H152.886V27.9903H146.67Z" fill="#008AC9"/>
<path d="M169.768 17.2714H161.109C160.073 17.2947 159.26 17.6152 158.676 18.2329C158.071 18.8601 157.771 19.7201 157.771 20.8127V23.4495C157.771 23.9604 157.824 24.4279 157.934 24.8489C158.043 25.2921 158.315 25.6877 158.744 26.0272C159.492 26.647 160.32 26.9538 161.226 26.9538H166.472C168.665 26.9305 169.768 25.7755 169.768 23.4823V17.2714ZM170.797 23.2243C170.797 23.8896 170.746 24.4734 170.661 24.9875C170.521 25.5459 170.234 26.0843 169.8 26.5962C168.895 27.5492 167.774 28.0136 166.436 27.9903H161.288C159.95 27.9903 158.866 27.5905 158.026 26.7951C157.168 26.0092 156.734 24.9166 156.734 23.5151V20.8518C156.777 17.8468 158.274 16.3079 161.223 16.2381H169.8V15.0725C169.8 14.1121 169.521 13.2712 168.968 12.5477C168.617 12.0781 168.201 11.7639 167.73 11.6021C167.253 11.4773 166.717 11.4149 166.121 11.4149H156.764V10.3794H165.634C166.446 10.3794 167.179 10.4365 167.843 10.5486C168.184 10.6163 168.494 10.7496 168.781 10.9421C169.085 11.1251 169.368 11.3927 169.63 11.7438C170.426 12.7698 170.814 13.9534 170.797 15.2861V23.2243Z" fill="#008AC9"/>
<path d="M180.479 11.4149C178.078 11.4593 176.895 12.7698 176.939 15.3485V27.9903H175.908V15.3528C175.859 12.0358 177.438 10.3794 180.645 10.3794H181.792V11.4149H180.479Z" fill="#008AC9"/>
<path d="M197.921 11.4202H189.76C189.171 11.4202 188.645 11.4857 188.17 11.6106C187.673 11.7227 187.193 12.0241 186.743 12.5149C186.312 12.9623 186.042 13.4055 185.929 13.8487C185.777 14.2961 185.709 14.8323 185.733 15.4575V23.5172C185.733 24.8573 186.121 25.7691 186.908 26.2588C187.296 26.4862 187.722 26.6565 188.201 26.7708C188.676 26.8977 189.207 26.9601 189.792 26.9601H193.361C194.694 26.9601 195.784 26.6533 196.622 26.0346C197.464 25.4539 197.892 24.4522 197.921 23.0243V11.4202ZM198.951 23.0952C198.86 26.4312 197.095 28.0665 193.656 27.9977H189.83C189.022 27.9977 188.3 27.9268 187.661 27.7925C187.003 27.6222 186.374 27.2213 185.768 26.5962C185.312 26.0346 185.019 25.4666 184.902 24.8849C184.744 24.3042 184.675 23.6579 184.699 22.9524V15.431C184.744 12.0432 186.45 10.3593 189.822 10.3847H197.921V4.67407H198.951V23.0952Z" fill="#008AC9"/>
<path d="M2.89878 9.82848C3.23724 9.67935 3.57571 9.563 3.91418 9.49002C4.53611 6.51996 7.16665 4.29242 10.3197 4.29242C13.4748 4.29242 16.1064 6.52313 16.7273 9.49213C17.6951 9.67617 18.4958 10.0675 19.1199 10.6503C19.1452 10.0802 19.122 9.53127 19.0543 9.01405C18.6555 4.52723 14.8932 1.0061 10.3059 1.0061C5.58325 1.0061 1.73846 4.74935 1.53856 9.42867C1.51106 9.83272 1.5026 10.2537 1.5174 10.6937C1.91404 10.3595 2.36675 10.0591 2.89878 9.82848Z" fill="#E3001B"/>
<path d="M15.4464 10.4937H4.92219C4.41554 10.4937 3.89092 10.6111 3.35043 10.8533C2.82897 11.0807 2.40166 11.3557 2.05896 11.6846C1.40635 12.4695 1.07211 13.6171 1.04884 15.1275V23.3544C1.07211 24.868 1.40635 26.0145 2.05896 26.7951C2.40166 27.1294 2.82897 27.4044 3.35043 27.6339C3.89092 27.8708 4.41554 27.9903 4.92219 27.9903H15.4464C18.1648 27.966 19.5472 26.4746 19.5905 23.5268V14.9551C19.5472 12.003 18.1648 10.5169 15.4464 10.4937Z" fill="#E3001B"/>
</svg>
