<svg width="40" height="40" viewBox="0 0 40 40" fill="none" xmlns="http://www.w3.org/2000/svg">
<path d="M27.9167 3.33301H11.25C9.41167 3.33301 7.91667 4.82801 7.91667 6.66634V33.333C7.91667 35.1713 9.41167 36.6663 11.25 36.6663H27.9167C29.755 36.6663 31.25 35.1713 31.25 33.333V6.66634C31.25 4.82801 29.755 3.33301 27.9167 3.33301ZM11.25 33.333V6.66634H27.9167L27.92 33.333H11.25Z" fill="white"/>
<path d="M19.5833 31.6663C20.5038 31.6663 21.25 30.9202 21.25 29.9997C21.25 29.0792 20.5038 28.333 19.5833 28.333C18.6629 28.333 17.9167 29.0792 17.9167 29.9997C17.9167 30.9202 18.6629 31.6663 19.5833 31.6663Z" fill="white"/>
</svg>
