<svg width="32" height="33" viewBox="0 0 32 33" fill="none" xmlns="http://www.w3.org/2000/svg">
<path d="M6 25.1768C6 25.1768 11 24.1768 12 21.1768C12 21.1768 4 18.1768 6 7.17676C6 7.17676 10 12.1768 16 13.1768V11.1771C16.0001 10.0283 16.3957 8.91459 17.1204 8.02316C17.845 7.13174 18.8545 6.51699 19.9791 6.28226C21.1036 6.04754 22.2747 6.20715 23.2954 6.73427C24.3162 7.26139 25.1243 8.12388 25.5839 9.17671L30 9.17676L26 13.1768C26 20.1768 21 27.1768 12 27.1768C8 27.1768 6 25.1768 6 25.1768Z" stroke="white" stroke-width="2" stroke-linecap="round" stroke-linejoin="round"/>
</svg>
