<svg width="24" height="24" viewBox="0 0 24 24" fill="none" xmlns="http://www.w3.org/2000/svg">
<path d="M12.0013 24.0005C18.6283 24.0005 24.0006 18.6282 24.0006 12.0011C24.0006 5.3741 18.6283 0.00183105 12.0013 0.00183105C5.37423 0.00183105 0.00195312 5.3741 0.00195312 12.0011C0.00195312 18.6282 5.37423 24.0005 12.0013 24.0005Z" fill="white"/>
<path d="M23.3139 7.99896H15.9204C16.2414 10.5623 16.2435 13.3868 15.9265 15.9533H23.3297C23.7616 14.7151 23.9994 13.3855 23.9994 12C23.9996 10.5964 23.7565 9.25037 23.3139 7.99896Z" fill="#E4E4E4"/>
<path d="M15.9203 7.99885H23.3136C23.3123 7.99505 23.3111 7.99186 23.3098 7.98841C21.7741 3.65806 17.8239 0.472107 13.0776 0.0491943C14.9141 1.05604 15.4505 4.24599 15.9203 7.99885Z" fill="#D32027"/>
<path d="M13.0771 23.9499C17.8321 23.5262 21.7881 20.3292 23.3178 15.9873C23.3218 15.9758 23.3252 15.9644 23.3294 15.9532H15.926C15.4601 19.7264 14.9215 22.9389 13.0771 23.9499Z" fill="#D32027"/>
<path d="M0 12C0 13.3857 0.237777 14.7151 0.669759 15.9533H16.5442C16.8612 13.3866 16.8591 10.5623 16.5381 7.99896H0.685668C0.243047 9.25042 0 10.5964 0 12Z" fill="#F3F4F5"/>
<path d="M0.690323 7.98847C0.689006 7.99186 0.687841 7.9951 0.686523 7.9989H16.539C16.0693 4.24604 14.915 1.05614 13.0783 0.0492984C12.723 0.0178346 12.3638 0 12.0004 0C6.78032 0 2.34098 3.33395 0.690323 7.98847Z" fill="#DB2727"/>
<path d="M16.5448 15.9532H0.67041C0.674413 15.9644 0.67801 15.9757 0.681962 15.9873C2.32619 20.6538 6.77155 23.9994 12.0002 23.9994C12.3636 23.9994 12.7228 23.9816 13.078 23.9498C14.9226 22.9388 16.0789 19.7263 16.5448 15.9532Z" fill="#DB2727"/>
</svg>
