<svg width="24" height="25" viewBox="0 0 24 25" fill="none" xmlns="http://www.w3.org/2000/svg">
<path d="M11.4989 8.12977L13.6454 6.57005L15.7922 8.12967L14.9722 5.60617L17.1189 4.04655H14.4654L13.6454 1.52295L12.8255 4.04655H10.1722L12.3187 5.60617L11.4989 8.12977Z" fill="#EF233C"/>
<path d="M24 17.1991L18.815 12.014C19.6539 10.6376 20.0761 9.35725 19.4165 8.69754C19.2669 8.54791 18.9924 8.36963 18.5348 8.36963C16.9443 8.36963 14.051 10.5509 11.8894 12.7126C9.89329 14.7086 6.48534 18.8507 7.87456 20.2398C8.02418 20.3894 8.29857 20.5678 8.75615 20.5678C8.75625 20.5678 8.75625 20.5678 8.75635 20.5678C9.4002 20.5678 10.2577 20.2101 11.1937 19.6412L16.3759 24.8234L24 17.1991Z" fill="#EF233C"/>
<path d="M0 2.99427L2.17103 0.823242L8.32232 6.97453L6.15139 9.14556L0 2.99427Z" fill="#EF233C"/>
<path d="M9.48012 8.13232L11.6263 10.2785L9.45515 12.4495L7.30899 10.3033L9.48012 8.13232Z" fill="#EF233C"/>
</svg>
