<svg xmlns="http://www.w3.org/2000/svg" xmlns:xlink="http://www.w3.org/1999/xlink"><defs>
<clipPath id="clip0">
<rect width="20" height="20" fill="white"/>
</clipPath>

<clipPath id="clip0">
<rect width="32" height="32" fill="white"/>
</clipPath>
</defs><symbol id="icon-austria" viewBox="0 0 24 24">
<path d="M12.0013 24.0005C18.6283 24.0005 24.0006 18.6282 24.0006 12.0011C24.0006 5.3741 18.6283 0.00183105 12.0013 0.00183105C5.37423 0.00183105 0.00195312 5.3741 0.00195312 12.0011C0.00195312 18.6282 5.37423 24.0005 12.0013 24.0005Z" fill="white"/>
<path d="M23.3139 7.99896H15.9204C16.2414 10.5623 16.2435 13.3868 15.9265 15.9533H23.3297C23.7616 14.7151 23.9994 13.3855 23.9994 12C23.9996 10.5964 23.7565 9.25037 23.3139 7.99896Z" fill="#E4E4E4"/>
<path d="M15.9203 7.99885H23.3136C23.3123 7.99505 23.3111 7.99186 23.3098 7.98841C21.7741 3.65806 17.8239 0.472107 13.0776 0.0491943C14.9141 1.05604 15.4505 4.24599 15.9203 7.99885Z" fill="#D32027"/>
<path d="M13.0771 23.9499C17.8321 23.5262 21.7881 20.3292 23.3178 15.9873C23.3218 15.9758 23.3252 15.9644 23.3294 15.9532H15.926C15.4601 19.7264 14.9215 22.9389 13.0771 23.9499Z" fill="#D32027"/>
<path d="M0 12C0 13.3857 0.237777 14.7151 0.669759 15.9533H16.5442C16.8612 13.3866 16.8591 10.5623 16.5381 7.99896H0.685668C0.243047 9.25042 0 10.5964 0 12Z" fill="#F3F4F5"/>
<path d="M0.690323 7.98847C0.689006 7.99186 0.687841 7.9951 0.686523 7.9989H16.539C16.0693 4.24604 14.915 1.05614 13.0783 0.0492984C12.723 0.0178346 12.3638 0 12.0004 0C6.78032 0 2.34098 3.33395 0.690323 7.98847Z" fill="#DB2727"/>
<path d="M16.5448 15.9532H0.67041C0.674413 15.9644 0.67801 15.9757 0.681962 15.9873C2.32619 20.6538 6.77155 23.9994 12.0002 23.9994C12.3636 23.9994 12.7228 23.9816 13.078 23.9498C14.9226 22.9388 16.0789 19.7263 16.5448 15.9532Z" fill="#DB2727"/>
</symbol><symbol id="icon-cake" viewBox="0 0 40 40">
<path d="M31.6667 8.33301H21.6667V3.33301H18.3333V8.33301H8.33334C5.57668 8.33301 3.33334 10.5763 3.33334 13.333V29.9997C3.33334 31.838 4.82834 33.333 6.66668 33.333H33.3333C35.1717 33.333 36.6667 31.838 36.6667 29.9997V13.333C36.6667 10.5763 34.4233 8.33301 31.6667 8.33301ZM8.33334 11.6663H31.6667C32.1087 11.6663 32.5326 11.8419 32.8452 12.1545C33.1578 12.4671 33.3333 12.891 33.3333 13.333L33.335 18.533C31.8417 18.913 30.8867 19.7563 30.1417 20.4197C29.2967 21.1697 28.7383 21.6663 27.495 21.6663C26.2533 21.6663 25.695 21.1697 24.85 20.4213C23.8583 19.5397 22.5017 18.333 19.9917 18.333C17.4833 18.333 16.1267 19.5397 15.135 20.4213C14.29 21.1713 13.7333 21.6663 12.4917 21.6663C11.2533 21.6663 10.6967 21.1713 9.85501 20.4213C9.11001 19.758 8.15834 18.913 6.66668 18.533V13.333C6.66668 12.891 6.84227 12.4671 7.15483 12.1545C7.46739 11.8419 7.89132 11.6663 8.33334 11.6663ZM6.66668 29.9997V22.143C6.98501 22.348 7.29001 22.5997 7.63834 22.9113C8.63001 23.793 9.98501 24.9997 12.4917 24.9997C15 24.9997 16.3567 23.793 17.3483 22.9113C18.1933 22.1613 18.75 21.6663 19.9917 21.6663C21.2333 21.6663 21.7917 22.163 22.6367 22.9113C23.6283 23.793 24.985 24.9997 27.495 24.9997C30.005 24.9997 31.3633 23.793 32.355 22.9113C32.7067 22.598 33.0133 22.3447 33.335 22.138L33.3367 29.9997H6.66668Z" fill="white"/>
</symbol><symbol id="icon-dollar" viewBox="0 0 40 40">
<path d="M20 3.33301C10.81 3.33301 3.33334 10.8097 3.33334 19.9997C3.33334 29.1897 10.81 36.6663 20 36.6663C29.19 36.6663 36.6667 29.1897 36.6667 19.9997C36.6667 10.8097 29.19 3.33301 20 3.33301ZM20 33.333C12.6483 33.333 6.66668 27.3513 6.66668 19.9997C6.66668 12.648 12.6483 6.66634 20 6.66634C27.3517 6.66634 33.3333 12.648 33.3333 19.9997C33.3333 27.3513 27.3517 33.333 20 33.333Z" fill="white"/>
<path d="M20 18.3329C16.6667 18.3329 16.6667 17.2895 16.6667 16.6662C16.6667 15.8595 17.835 14.9995 20 14.9995C21.975 14.9995 22.31 16.0629 22.3333 16.6962L24 16.6662H25.6667C25.6667 14.9562 24.5567 12.5512 21.6667 11.8679V10.0195H18.3333V11.8079C15.0483 12.3595 13.3333 14.5195 13.3333 16.6662C13.3333 18.5329 14.2 21.6662 20 21.6662C23.3333 21.6662 23.3333 22.7929 23.3333 23.3329C23.3333 24.0245 22.3 24.9995 20 24.9995C16.9317 24.9995 16.685 23.5712 16.6667 23.3329H13.3333C13.3333 24.8629 14.435 27.5879 18.3333 28.1995V29.9995H21.6667V28.1912C24.9517 27.6395 26.6667 25.4795 26.6667 23.3329C26.6667 21.4662 25.8 18.3329 20 18.3329Z" fill="white"/>
</symbol><symbol id="icon-fb" viewBox="0 0 32 33">
<path d="M16 28.1768C22.6274 28.1768 28 22.8042 28 16.1768C28 9.54934 22.6274 4.17676 16 4.17676C9.37258 4.17676 4 9.54934 4 16.1768C4 22.8042 9.37258 28.1768 16 28.1768Z" stroke="white" stroke-width="2" stroke-linecap="round" stroke-linejoin="round"/>
<path d="M21 11.1768H19C18.2044 11.1768 17.4413 11.4928 16.8787 12.0554C16.3161 12.618 16 13.3811 16 14.1768V28.1768" stroke="white" stroke-width="2" stroke-linecap="round" stroke-linejoin="round"/>
<path d="M12 18.1768H20" stroke="white" stroke-width="2" stroke-linecap="round" stroke-linejoin="round"/>
</symbol><symbol id="icon-inst" viewBox="0 0 32 33">
<path d="M16 21.1768C18.7614 21.1768 21 18.9382 21 16.1768C21 13.4153 18.7614 11.1768 16 11.1768C13.2386 11.1768 11 13.4153 11 16.1768C11 18.9382 13.2386 21.1768 16 21.1768Z" stroke="white" stroke-width="2" stroke-miterlimit="10"/>
<path d="M21.5 4.67676H10.5C7.18629 4.67676 4.5 7.36305 4.5 10.6768V21.6768C4.5 24.9905 7.18629 27.6768 10.5 27.6768H21.5C24.8137 27.6768 27.5 24.9905 27.5 21.6768V10.6768C27.5 7.36305 24.8137 4.67676 21.5 4.67676Z" stroke="white" stroke-width="2" stroke-linecap="round" stroke-linejoin="round"/>
<path d="M22.5 11.1768C23.3284 11.1768 24 10.5052 24 9.67676C24 8.84833 23.3284 8.17676 22.5 8.17676C21.6716 8.17676 21 8.84833 21 9.67676C21 10.5052 21.6716 11.1768 22.5 11.1768Z" fill="white"/>
</symbol><symbol id="icon-magic" viewBox="0 0 24 25">
<path d="M11.4989 8.12977L13.6454 6.57005L15.7922 8.12967L14.9722 5.60617L17.1189 4.04655H14.4654L13.6454 1.52295L12.8255 4.04655H10.1722L12.3187 5.60617L11.4989 8.12977Z" fill="#EF233C"/>
<path d="M24 17.1991L18.815 12.014C19.6539 10.6376 20.0761 9.35725 19.4165 8.69754C19.2669 8.54791 18.9924 8.36963 18.5348 8.36963C16.9443 8.36963 14.051 10.5509 11.8894 12.7126C9.89329 14.7086 6.48534 18.8507 7.87456 20.2398C8.02418 20.3894 8.29857 20.5678 8.75615 20.5678C8.75625 20.5678 8.75625 20.5678 8.75635 20.5678C9.4002 20.5678 10.2577 20.2101 11.1937 19.6412L16.3759 24.8234L24 17.1991Z" fill="#EF233C"/>
<path d="M0 2.99427L2.17103 0.823242L8.32232 6.97453L6.15139 9.14556L0 2.99427Z" fill="#EF233C"/>
<path d="M9.48012 8.13232L11.6263 10.2785L9.45515 12.4495L7.30899 10.3033L9.48012 8.13232Z" fill="#EF233C"/>
</symbol><symbol id="icon-mobile" viewBox="0 0 40 40">
<path d="M27.9167 3.33301H11.25C9.41167 3.33301 7.91667 4.82801 7.91667 6.66634V33.333C7.91667 35.1713 9.41167 36.6663 11.25 36.6663H27.9167C29.755 36.6663 31.25 35.1713 31.25 33.333V6.66634C31.25 4.82801 29.755 3.33301 27.9167 3.33301ZM11.25 33.333V6.66634H27.9167L27.92 33.333H11.25Z" fill="white"/>
<path d="M19.5833 31.6663C20.5038 31.6663 21.25 30.9202 21.25 29.9997C21.25 29.0792 20.5038 28.333 19.5833 28.333C18.6629 28.333 17.9167 29.0792 17.9167 29.9997C17.9167 30.9202 18.6629 31.6663 19.5833 31.6663Z" fill="white"/>
</symbol><symbol id="icon-search" viewBox="0 0 20 20">
<g clip-path="url(#clip0)">
<path d="M8.80758 0C3.95121 0 0 3.95121 0 8.80758C0 13.6642 3.95121 17.6152 8.80758 17.6152C13.6642 17.6152 17.6152 13.6642 17.6152 8.80758C17.6152 3.95121 13.6642 0 8.80758 0ZM8.80758 15.9892C4.8477 15.9892 1.62602 12.7675 1.62602 8.80762C1.62602 4.84773 4.8477 1.62602 8.80758 1.62602C12.7675 1.62602 15.9891 4.8477 15.9891 8.80758C15.9891 12.7675 12.7675 15.9892 8.80758 15.9892Z" fill="black"/>
<path d="M19.7618 18.6122L15.1006 13.951C14.7829 13.6334 14.2686 13.6334 13.9509 13.951C13.6333 14.2683 13.6333 14.7832 13.9509 15.1006L18.6122 19.7619C18.771 19.9206 18.9789 20.0001 19.187 20.0001C19.3949 20.0001 19.603 19.9206 19.7618 19.7619C20.0794 19.4445 20.0794 18.9296 19.7618 18.6122Z" fill="black"/>
</g>

</symbol><symbol id="icon-switzerland" viewBox="0 0 32 32">
<g clip-path="url(#clip0)">
<path d="M16.0011 32.0005C24.8373 32.0005 32.0005 24.8373 32.0005 16.0011C32.0005 7.16497 24.8373 0.00183105 16.0011 0.00183105C7.16497 0.00183105 0.00183105 7.16497 0.00183105 16.0011C0.00183105 24.8373 7.16497 32.0005 16.0011 32.0005Z" fill="white"/>
<path d="M31.0855 10.6652C31.0838 10.6602 31.0822 10.6559 31.0805 10.6513C29.0327 4.87744 23.7655 0.629443 17.4369 0.0655518C19.8857 1.40803 20.6008 5.66136 21.2274 10.6652C21.6554 14.083 21.6581 17.849 21.2355 21.2712C20.6143 26.3021 19.8961 30.5854 17.437 31.9335C23.777 31.3686 29.0517 27.1059 31.0914 21.3166C31.0967 21.3012 31.1013 21.286 31.1068 21.2712C31.6828 19.6202 31.9998 17.8473 31.9998 16C31.9998 14.1285 31.6757 12.3338 31.0855 10.6652Z" fill="#CF1B27"/>
<path d="M22.0511 10.6654C21.4249 5.66148 19.8858 1.40821 17.4369 0.0657321C16.9632 0.0237798 16.4842 0 15.9997 0C9.03942 0 3.12022 4.44533 0.919304 10.6514C0.917548 10.656 0.915994 10.6603 0.914237 10.6654C0.324134 12.3339 0 14.1286 0 16.0001C0 17.8477 0.317041 19.6203 0.893025 21.2713C0.898362 21.2862 0.903158 21.3013 0.908428 21.3167C3.10076 27.5388 9.028 31.9997 15.9996 31.9997C16.4842 31.9997 16.9631 31.976 17.4368 31.9335C19.8959 30.5855 21.4379 26.3021 22.0592 21.2712C22.4819 17.8489 22.4791 14.0832 22.0511 10.6654Z" fill="#DB2727"/>
<path d="M18.7387 7.74988H13.2369V24.2545H18.7387V7.74988Z" fill="white"/>
<path d="M24.2412 13.2517H7.73651V18.7535H24.2412V13.2517Z" fill="white"/>
</g>

</symbol><symbol id="icon-trophy" viewBox="0 0 40 40">
<path d="M35 6.66634H30V4.99967C30 4.55765 29.8244 4.13372 29.5118 3.82116C29.1993 3.5086 28.7754 3.33301 28.3333 3.33301H11.6667C11.2246 3.33301 10.8007 3.5086 10.4882 3.82116C10.1756 4.13372 10 4.55765 10 4.99967V6.66634H4.99999C4.55797 6.66634 4.13404 6.84194 3.82148 7.1545C3.50892 7.46706 3.33333 7.89098 3.33333 8.33301V13.333C3.33333 20.5163 6.33166 24.8497 11.365 25.0197C12.1018 26.286 13.1079 27.375 14.312 28.2096C15.5162 29.0442 16.889 29.6041 18.3333 29.8497V33.333H15V36.6663H25V33.333H21.6667V29.8497C23.1107 29.6031 24.4831 29.0428 25.6871 28.2083C26.8911 27.3738 27.8973 26.2853 28.635 25.0197C33.6683 24.8497 36.6667 20.5163 36.6667 13.333V8.33301C36.6667 7.89098 36.4911 7.46706 36.1785 7.1545C35.8659 6.84194 35.442 6.66634 35 6.66634ZM6.66666 13.333V9.99967H10V21.383C7.02666 20.1297 6.66666 15.498 6.66666 13.333ZM20 26.6663C16.3233 26.6663 13.3333 23.6763 13.3333 19.9997V6.66634H26.6667V19.9997C26.6667 23.6763 23.6767 26.6663 20 26.6663ZM30 21.383V9.99967H33.3333V13.333C33.3333 15.498 32.9733 20.1297 30 21.383Z" fill="white"/>
</symbol><symbol id="icon-twitter" viewBox="0 0 32 33">
<path d="M6 25.1768C6 25.1768 11 24.1768 12 21.1768C12 21.1768 4 18.1768 6 7.17676C6 7.17676 10 12.1768 16 13.1768V11.1771C16.0001 10.0283 16.3957 8.91459 17.1204 8.02316C17.845 7.13174 18.8545 6.51699 19.9791 6.28226C21.1036 6.04754 22.2747 6.20715 23.2954 6.73427C24.3162 7.26139 25.1243 8.12388 25.5839 9.17671L30 9.17676L26 13.1768C26 20.1768 21 27.1768 12 27.1768C8 27.1768 6 25.1768 6 25.1768Z" stroke="white" stroke-width="2" stroke-linecap="round" stroke-linejoin="round"/>
</symbol></svg>