<svg xmlns="http://www.w3.org/2000/svg" xmlns:xlink="http://www.w3.org/1999/xlink"><defs>
<clipPath id="clip0">
<rect width="20" height="20" fill="white"/>
</clipPath>

<clipPath id="clip0">
<rect width="32" height="32" fill="white"/>
</clipPath>
</defs><symbol id="icon-magic" viewBox="0 0 24 25">
<path d="M11.4989 8.12977L13.6454 6.57005L15.7922 8.12967L14.9722 5.60617L17.1189 4.04655H14.4654L13.6454 1.52295L12.8255 4.04655H10.1722L12.3187 5.60617L11.4989 8.12977Z" fill="#EF233C"/>
<path d="M24 17.1991L18.815 12.014C19.6539 10.6376 20.0761 9.35725 19.4165 8.69754C19.2669 8.54791 18.9924 8.36963 18.5348 8.36963C16.9443 8.36963 14.051 10.5509 11.8894 12.7126C9.89329 14.7086 6.48534 18.8507 7.87456 20.2398C8.02418 20.3894 8.29857 20.5678 8.75615 20.5678C8.75625 20.5678 8.75625 20.5678 8.75635 20.5678C9.4002 20.5678 10.2577 20.2101 11.1937 19.6412L16.3759 24.8234L24 17.1991Z" fill="#EF233C"/>
<path d="M0 2.99427L2.17103 0.823242L8.32232 6.97453L6.15139 9.14556L0 2.99427Z" fill="#EF233C"/>
<path d="M9.48012 8.13232L11.6263 10.2785L9.45515 12.4495L7.30899 10.3033L9.48012 8.13232Z" fill="#EF233C"/>
</symbol><symbol id="icon-search" viewBox="0 0 20 20">
<g clip-path="url(#clip0)">
<path d="M8.80758 0C3.95121 0 0 3.95121 0 8.80758C0 13.6642 3.95121 17.6152 8.80758 17.6152C13.6642 17.6152 17.6152 13.6642 17.6152 8.80758C17.6152 3.95121 13.6642 0 8.80758 0ZM8.80758 15.9892C4.8477 15.9892 1.62602 12.7675 1.62602 8.80762C1.62602 4.84773 4.8477 1.62602 8.80758 1.62602C12.7675 1.62602 15.9891 4.8477 15.9891 8.80758C15.9891 12.7675 12.7675 15.9892 8.80758 15.9892Z" fill="black"/>
<path d="M19.7618 18.6122L15.1006 13.951C14.7829 13.6334 14.2686 13.6334 13.9509 13.951C13.6333 14.2683 13.6333 14.7832 13.9509 15.1006L18.6122 19.7619C18.771 19.9206 18.9789 20.0001 19.187 20.0001C19.3949 20.0001 19.603 19.9206 19.7618 19.7619C20.0794 19.4445 20.0794 18.9296 19.7618 18.6122Z" fill="black"/>
</g>

</symbol><symbol id="icon-switzerland" viewBox="0 0 32 32">
<g clip-path="url(#clip0)">
<path d="M16.0011 32.0005C24.8373 32.0005 32.0005 24.8373 32.0005 16.0011C32.0005 7.16497 24.8373 0.00183105 16.0011 0.00183105C7.16497 0.00183105 0.00183105 7.16497 0.00183105 16.0011C0.00183105 24.8373 7.16497 32.0005 16.0011 32.0005Z" fill="white"/>
<path d="M31.0855 10.6652C31.0838 10.6602 31.0822 10.6559 31.0805 10.6513C29.0327 4.87744 23.7655 0.629443 17.4369 0.0655518C19.8857 1.40803 20.6008 5.66136 21.2274 10.6652C21.6554 14.083 21.6581 17.849 21.2355 21.2712C20.6143 26.3021 19.8961 30.5854 17.437 31.9335C23.777 31.3686 29.0517 27.1059 31.0914 21.3166C31.0967 21.3012 31.1013 21.286 31.1068 21.2712C31.6828 19.6202 31.9998 17.8473 31.9998 16C31.9998 14.1285 31.6757 12.3338 31.0855 10.6652Z" fill="#CF1B27"/>
<path d="M22.0511 10.6654C21.4249 5.66148 19.8858 1.40821 17.4369 0.0657321C16.9632 0.0237798 16.4842 0 15.9997 0C9.03942 0 3.12022 4.44533 0.919304 10.6514C0.917548 10.656 0.915994 10.6603 0.914237 10.6654C0.324134 12.3339 0 14.1286 0 16.0001C0 17.8477 0.317041 19.6203 0.893025 21.2713C0.898362 21.2862 0.903158 21.3013 0.908428 21.3167C3.10076 27.5388 9.028 31.9997 15.9996 31.9997C16.4842 31.9997 16.9631 31.976 17.4368 31.9335C19.8959 30.5855 21.4379 26.3021 22.0592 21.2712C22.4819 17.8489 22.4791 14.0832 22.0511 10.6654Z" fill="#DB2727"/>
<path d="M18.7387 7.74988H13.2369V24.2545H18.7387V7.74988Z" fill="white"/>
<path d="M24.2412 13.2517H7.73651V18.7535H24.2412V13.2517Z" fill="white"/>
</g>

</symbol></svg>