<svg width="66" height="32" viewBox="0 0 66 32" fill="none" xmlns="http://www.w3.org/2000/svg">
<path d="M22.6698 15.7869V32H0V15.7869H22.6698ZM49.0661 21.6977V26.1633C49.0661 27.6456 49.7055 28.183 50.5458 28.183C51.4044 28.183 52.0437 27.6456 52.0437 26.1633H52.0255V21.6977H52.9023V26.1448C52.9023 28.2015 51.9159 28.9797 50.5458 28.9797C49.1758 28.9797 48.1711 28.183 48.1711 26.1448V21.6977H49.0661ZM31.4016 21.568C32.2967 21.568 33.0639 21.9386 33.5754 22.4574L33.1005 23.0504C32.6255 22.6427 32.0958 22.3833 31.3651 22.3833C30.543 22.3833 29.995 22.7724 29.995 23.421C29.995 24.1065 30.6526 24.3474 31.2555 24.6068L32.2419 25.033C33.1005 25.3851 33.7946 25.8668 33.7946 26.923C33.7946 28.0533 32.863 28.9612 31.3103 28.9612C30.269 28.9612 29.3922 28.5536 28.7528 27.905L29.2826 27.275C29.8123 27.8124 30.543 28.1644 31.3468 28.1644C32.315 28.1644 32.8813 27.7012 32.8813 27.0342C32.8813 26.2745 32.3332 26.0521 31.6208 25.7371L30.6161 25.2924C29.9219 25.0145 29.0999 24.4957 29.0999 23.458C29.0999 22.3648 30.0681 21.568 31.4016 21.568ZM44.7368 21.5495C45.5771 21.5495 46.253 21.9571 46.6549 22.4204L46.1434 22.9948C45.7963 22.6057 45.3213 22.3463 44.7368 22.3463C43.385 22.3463 42.5082 23.458 42.5082 25.2368C42.5082 27.0342 43.385 28.1644 44.7368 28.1644C45.3944 28.1644 45.8876 27.8865 46.3078 27.3677L46.8193 27.9236C46.2712 28.5721 45.5771 28.9612 44.6454 28.9612C42.91 28.9612 41.5765 27.59 41.5765 25.2554C41.5765 22.9577 42.91 21.5495 44.7368 21.5495ZM40.0421 21.6977V22.4574H36.5895V24.6995H39.5123V25.4777H36.5895V28.0533H40.1517V28.8315H35.6944V21.6977H40.0421ZM57.0307 21.6977C58.4556 21.6977 59.4785 22.2166 59.4785 23.6989C59.4785 24.8107 58.8392 25.4777 57.9258 25.7186L59.716 28.8315H58.6931L56.9942 25.8112H55.7337V28.8315H54.8386V21.6977H57.0307ZM65.7625 21.6977V22.4574H62.31V24.6995H65.2328V25.4777H62.31V28.0533H65.8721V28.8315H61.3966V21.6977H65.7625ZM15.1071 19.7707L10.1567 24.7921L8.01937 22.6242L6.43011 24.2362L10.1567 28.0162L16.6964 21.3827L15.1071 19.7707ZM56.8846 22.4204H55.7155V25.0701H56.8846C57.9806 25.0701 58.5835 24.6254 58.5835 23.6989C58.5835 22.7539 57.9806 22.4204 56.8846 22.4204ZM35.3656 2.39027C37.3385 2.39027 39.2931 3.14997 40.7728 4.55819L38.9095 6.91141C37.7769 6.07759 36.7539 5.59583 35.1647 5.59583C33.9408 5.59583 33.1187 6.13318 33.1187 7.0967C33.1187 8.07875 34.2148 8.46786 35.7858 9.04227L37.7587 9.89462C39.8959 10.7099 41.2477 12.044 41.2477 14.3787C41.2477 17.1025 38.9826 19.4928 34.9637 19.4928C32.7717 19.4928 30.5248 18.696 28.7894 17.121L30.9084 14.564C32.1323 15.5831 33.6485 16.2872 35.2195 16.2872C36.7722 16.2872 37.5029 15.6757 37.5029 14.8419C37.5029 13.6746 36.5347 13.3596 34.982 12.7111L32.8813 11.8031C31.0545 11.1175 29.4105 9.70932 29.4105 7.30052C29.4105 4.55819 31.8583 2.39027 35.3656 2.39027ZM47.824 2.39027C49.7969 2.39027 51.7515 3.14997 53.2311 4.55819L51.3678 6.91141C50.2353 6.07759 49.2123 5.59583 47.623 5.59583C46.3991 5.59583 45.5771 6.13318 45.5771 7.0967C45.5771 8.07875 46.6731 8.46786 48.2441 9.04227L50.217 9.89462C52.3725 10.7099 53.7061 12.044 53.7243 14.3787C53.7243 17.121 51.4592 19.4928 47.4221 19.4928C45.23 19.4928 42.9831 18.696 41.2477 17.121L43.3667 14.564C44.5906 15.5831 46.1068 16.2872 47.6778 16.2872C49.2306 16.2872 49.9613 15.6757 49.9613 14.8419C49.9613 13.6746 48.9931 13.3596 47.4404 12.7111L45.3396 11.8031C43.5129 11.1175 41.8688 9.70932 41.8688 7.30052C41.8688 4.55819 44.3166 2.39027 47.824 2.39027ZM58.7661 2.68674V16.0463H66V19.1778H55.1127V2.68674H58.7661ZM11.344 0C16.0022 0 19.8018 3.85408 19.8201 8.59757V13.4708H15.9839V8.59757C15.9839 6.00347 13.9015 3.89114 11.344 3.89114C8.76834 3.89114 6.68586 6.00347 6.68586 8.59757H6.70412V13.4708H2.86797V8.59757C2.86797 3.85408 6.66759 0 11.344 0Z" fill="#03B233"/>
</svg>
