<svg width="94" height="32" viewBox="0 0 94 32" fill="none" xmlns="http://www.w3.org/2000/svg">
<path d="M93.1632 25.987C92.7187 25.987 92.3657 25.627 92.3657 25.1737C92.3657 24.7337 92.7187 24.3604 93.1632 24.3604C93.5947 24.3604 93.9607 24.7204 93.9607 25.1737C93.9607 25.6137 93.5947 25.987 93.1632 25.987ZM93.1632 24.5204C92.8102 24.5204 92.5226 24.8137 92.5226 25.1737C92.5226 25.5337 92.8102 25.827 93.1632 25.827C93.5162 25.827 93.8038 25.5337 93.8038 25.1737C93.8038 24.8137 93.5162 24.5204 93.1632 24.5204ZM93.5685 25.6004H93.3855L93.2286 25.2937H93.0194V25.6004H92.8494V24.707H93.2678C93.4508 24.707 93.5685 24.827 93.5685 25.0004C93.5685 25.1337 93.4901 25.227 93.3855 25.267L93.5685 25.6004ZM93.2547 25.1337C93.3201 25.1337 93.3855 25.0937 93.3855 25.0004C93.3855 24.8937 93.3332 24.867 93.2547 24.867H92.9933V25.1337H93.2547Z" fill="white"/>
<path d="M10.0798 24.2803H12.1193V29.9469H15.6623V31.7603H10.0798V24.2803Z" fill="white"/>
<path d="M17.7672 28.0401V28.0134C17.7672 25.8668 19.4668 24.1201 21.7285 24.1201C23.9903 24.1201 25.6637 25.8401 25.6637 27.9868V28.0134C25.6637 30.1601 23.9642 31.9068 21.7024 31.9068C19.4406 31.9068 17.7672 30.1868 17.7672 28.0401ZM23.5981 28.0401V28.0134C23.5981 26.9334 22.8398 26.0001 21.7155 26.0001C20.6042 26.0001 19.859 26.9201 19.859 28.0001V28.0268C19.859 29.1068 20.6173 30.0401 21.7285 30.0401C22.8529 30.0401 23.5981 29.1201 23.5981 28.0401Z" fill="white"/>
<path d="M28.1608 28.4803V24.2803H30.2264V28.4403C30.2264 29.5203 30.7624 30.0269 31.573 30.0269C32.3836 30.0269 32.9196 29.5336 32.9196 28.4936V24.2803H34.9852V28.4269C34.9852 30.8403 33.6387 31.8936 31.5469 31.8936C29.4681 31.8936 28.1608 30.8269 28.1608 28.4803Z" fill="white"/>
<path d="M38.0968 24.2803H40.9207C43.5355 24.2803 45.0651 25.8136 45.0651 27.9736V28.0003C45.0651 30.1603 43.5224 31.7603 40.8815 31.7603H38.0968V24.2803ZM40.9599 29.9203C42.1758 29.9203 42.9864 29.2403 42.9864 28.0269V28.0003C42.9864 26.8003 42.1758 26.1069 40.9599 26.1069H40.1363V29.9069H40.9599V29.9203Z" fill="white"/>
<path d="M48.0198 24.2803H53.8899V26.0936H50.0462V27.3736H53.5238V29.0936H50.0462V31.7603H48.0198V24.2803Z" fill="white"/>
<path d="M56.7137 24.2803H58.7402V29.9469H62.2962V31.7603H56.7137V24.2803Z" fill="white"/>
<path d="M67.6042 24.2266H69.5653L72.6899 31.7599H70.5066L69.9706 30.4266H67.1466L66.6237 31.7599H64.4927L67.6042 24.2266ZM69.3953 28.8132L68.5847 26.6932L67.7611 28.8132H69.3953Z" fill="white"/>
<path d="M75.3046 24.2803H78.7691C79.8934 24.2803 80.6648 24.5736 81.1616 25.0936C81.593 25.5203 81.8153 26.0936 81.8153 26.8403V26.8669C81.8153 28.0136 81.2139 28.7736 80.3118 29.1603L82.0637 31.7736H79.7104L78.2331 29.5069H77.3441V31.7736H75.3046V24.2803ZM78.6776 27.8669C79.3705 27.8669 79.7627 27.5203 79.7627 26.9869V26.9603C79.7627 26.3736 79.3443 26.0803 78.6645 26.0803H77.331V27.8669H78.6776Z" fill="white"/>
<path d="M84.7438 24.2803H90.64V26.0403H86.7571V27.1736H90.274V28.8136H86.7571V30.0003H90.6923V31.7603H84.7438V24.2803Z" fill="white"/>
<path d="M5.63477 28.9195C5.34715 29.5728 4.74576 30.0395 3.96134 30.0395C2.85007 30.0395 2.09179 29.0928 2.09179 28.0261V27.9995C2.09179 26.9195 2.837 25.9995 3.94826 25.9995C4.78498 25.9995 5.42559 26.5195 5.68707 27.2395H7.83115C7.49124 25.4528 5.94854 24.1328 3.96134 24.1328C1.69958 24.1328 0 25.8795 0 28.0261V28.0528C0 30.1995 1.67344 31.9195 3.93519 31.9195C5.8701 31.9195 7.38665 30.6395 7.77886 28.9328L5.63477 28.9195Z" fill="white"/>
<path d="M88.2345 12.3473L82.6259 9.06729L81.6584 8.64062L58.7141 8.80062V20.6806H88.2345V12.3473Z" fill="white"/>
<path d="M78.0239 19.5868C78.2985 18.6268 78.1939 17.7468 77.7363 17.0935C77.3179 16.4935 76.6119 16.1468 75.7622 16.1068L59.6684 15.8935C59.5638 15.8935 59.4723 15.8401 59.42 15.7601C59.3677 15.6801 59.3546 15.5735 59.3808 15.4668C59.4331 15.3068 59.59 15.1868 59.7599 15.1735L75.9975 14.9601C77.9193 14.8668 80.0111 13.2801 80.7432 11.3335L81.6715 8.86678C81.7107 8.76012 81.7238 8.65345 81.6976 8.54678C80.6517 3.72012 76.4289 0.120117 71.3825 0.120117C66.7282 0.120117 62.78 3.18678 61.368 7.44012C60.4528 6.74678 59.2893 6.37345 58.0342 6.49345C55.7986 6.72012 54.0075 8.54678 53.7852 10.8268C53.733 11.4135 53.7722 11.9868 53.9029 12.5201C50.2553 12.6268 47.3399 15.6668 47.3399 19.4135C47.3399 19.7468 47.3661 20.0801 47.4053 20.4135C47.4314 20.5735 47.5622 20.6934 47.719 20.6934H77.4225C77.5925 20.6934 77.7494 20.5735 77.8017 20.4001L78.0239 19.5868Z" fill="#F38020"/>
<path d="M83.1488 9.04004C83.005 9.04004 82.8481 9.04004 82.7043 9.05337C82.5997 9.05337 82.5082 9.13337 82.469 9.24004L81.8414 11.4667C81.5669 12.4267 81.6715 13.3067 82.1291 13.96C82.5474 14.56 83.2534 14.9067 84.1032 14.9467L87.5285 15.16C87.6331 15.16 87.7246 15.2134 87.7769 15.2934C87.8292 15.3734 87.8423 15.4934 87.8161 15.5867C87.7638 15.7467 87.6069 15.8667 87.437 15.88L83.8679 16.0934C81.933 16.1867 79.8542 17.7734 79.1221 19.72L78.8606 20.4C78.8083 20.5334 78.8999 20.6667 79.0437 20.6667H91.3068C91.4506 20.6667 91.5814 20.5734 91.6206 20.4267C91.8298 19.6534 91.9474 18.84 91.9474 18C91.9474 13.0667 87.9992 9.04004 83.1488 9.04004Z" fill="#FAAE40"/>
</svg>
