<svg width="220" height="116" viewBox="0 0 220 116" fill="none" xmlns="http://www.w3.org/2000/svg">
<path d="M194.023 15.6488C192.843 16.4713 191.13 16.8779 188.787 16.8779H187.77H186.463L188.245 7.25387H189.148H189.954C191.899 7.25387 193.32 7.56693 194.299 8.20229C195.064 8.70058 195.97 9.68696 195.97 11.5588C195.97 13.814 194.916 15.0273 194.023 15.6488ZM55.3988 27.7272H37.4151L38.5774 21.4365H49.8574L51.1393 14.3512H39.9676L41.0476 8.12541H58.9998L55.3988 27.7272ZM203.711 2.72576C201.066 0.913215 197.065 0 191.819 0H178.08L172.973 27.7281H154.976L156.13 21.4375H166.973L168.262 14.3716L157.425 14.3911L158.586 8.12727H169.752L171.238 0.000925676H148.555L143.708 26.3055H135.391L140.273 0.000925676H128.415L123.568 26.3055H115.458L120.346 0.000925676H108.5L103.38 27.729H85.2543L86.3963 21.4384H97.2883L98.571 14.4133L87.6958 14.4031L88.8507 8.12727H100.141L101.619 0.000925676H30.954L26.9316 21.9747L18.9182 0H6.61944L0 35.8591H11.7449L15.7507 13.2815L23.5279 35.8591H65.6248L70.742 8.12634H77.329L72.209 35.8591H182.979L186.187 18.3514L191.388 35.8591H203.139L197.755 21.5542L198.984 21.2883C201.692 20.7086 203.812 19.4591 205.283 17.5873C206.757 15.6979 207.505 13.2722 207.505 10.3584C207.506 6.9649 206.267 4.46976 203.711 2.72576Z" fill="#8DC640"/>
<path d="M213.395 31.6181L214.995 31.5347C215.334 31.519 215.602 31.468 215.789 31.3875C215.976 31.3087 216.118 31.1883 216.209 31.0263C216.299 30.8651 216.343 30.6956 216.331 30.5141C216.317 30.2455 216.209 30.0315 216.008 29.8676C215.806 29.7055 215.494 29.6388 215.077 29.6583L213.296 29.749L213.395 31.6181ZM212.803 34.8023L212.515 29.1618L215.017 29.0359C215.518 29.0099 215.9 29.0414 216.168 29.1304C216.436 29.2174 216.652 29.386 216.823 29.6351C216.992 29.8833 217.087 30.1593 217.099 30.4705C217.122 30.8707 217.008 31.2133 216.763 31.5023C216.519 31.7885 216.129 31.9839 215.593 32.0858C215.794 32.1729 215.95 32.2562 216.056 32.3424C216.284 32.5313 216.503 32.7721 216.712 33.0629L217.765 34.5485L216.835 34.5958L216.029 33.4603C215.794 33.1315 215.601 32.8814 215.451 32.7091C215.302 32.5369 215.167 32.4192 215.053 32.3526C214.941 32.2859 214.82 32.2423 214.706 32.2183C214.619 32.2053 214.481 32.2034 214.289 32.2136L213.427 32.2572L213.551 34.7643L212.803 34.8023Z" fill="#8DC640"/>
<path d="M210.36 32.0728C210.302 30.9058 210.699 29.787 211.481 28.9219C212.264 28.055 213.34 27.5429 214.509 27.4836C216.915 27.3585 218.974 29.2174 219.098 31.6264C219.102 31.7005 219.107 31.7792 219.107 31.8505C219.107 34.1623 217.286 36.0989 214.953 36.2212C212.543 36.3435 210.486 34.4828 210.36 32.0728ZM214.459 26.5843C213.056 26.6593 211.759 27.2724 210.817 28.3181C209.874 29.3628 209.393 30.715 209.465 32.1219C209.617 35.0227 212.098 37.2613 215.001 37.1159C217.9 36.9659 220.143 34.4828 219.993 31.5819V31.5792C219.847 28.6774 217.365 26.437 214.459 26.5843Z" fill="#8DC640"/>
<g clip-path="url(#clip0)">
<path fill-rule="evenodd" clip-rule="evenodd" d="M140.461 79.7335C143.632 79.7335 146.202 77.182 146.202 74.0355C146.202 70.8873 143.632 68.3333 140.461 68.3333C137.294 68.3333 134.726 70.8873 134.726 74.0355C134.726 77.182 137.294 79.7335 140.461 79.7335ZM96.4959 82.8107C96.2368 83.457 94.3724 88.6882 89.8634 94.1099V70.9277L77.8493 73.2863V115.307H89.8634V102.318C93.3431 107.502 95.0613 115.307 95.0613 115.307H109.452C108.028 109.428 101.802 98.59 101.802 98.59C107.39 91.5522 109.845 84.0531 110.235 82.8107H96.4959ZM128.08 82.3721C117.319 82.7151 111.857 87.5107 111.857 97.0437V115.307H123.597V100.414C123.597 94.7054 124.349 92.2586 131.168 92.0251V82.5393C130.021 82.2973 128.08 82.3721 128.08 82.3721ZM57.7004 87.4378C56.2289 87.3417 52.822 87.123 52.822 84.0764C52.822 80.4 57.727 80.4 59.5667 80.4C62.8015 80.4 66.991 81.3496 69.9828 82.2385C69.9828 82.2385 71.6517 82.823 73.0721 83.4215L73.2041 83.457V73.3886L73.0227 73.3353C69.4919 72.1082 65.3863 70.9277 57.7745 70.9277C44.6502 70.9277 40 78.5224 40 85.0284C40 88.7789 41.6183 97.6055 56.6489 98.6237C57.9231 98.7015 61.3047 98.8951 61.3047 102.043C61.3047 104.643 58.5361 106.175 53.8797 106.175C48.7768 106.175 43.8269 104.883 40.8203 103.657V114.027C45.3212 115.199 50.3952 115.784 56.3418 115.784C69.1743 115.784 74.9217 108.599 74.9217 101.477C74.9217 93.4023 68.4903 88.1558 57.7004 87.4378ZM134.642 115.307H146.287V82.8475H134.642V115.307ZM168.213 72.9971V115.307H179.859V70.9277L168.213 72.9971ZM151.219 72.9971L162.855 70.9277V115.307H151.219V72.9971Z" fill="url(#paint0_linear)"/>
</g>
<defs>
<linearGradient id="paint0_linear" x1="77.8235" y1="68.3333" x2="88.1971" y2="126.886" gradientUnits="userSpaceOnUse">
<stop stop-color="#6B195F"/>
<stop offset="1" stop-color="#4C255B"/>
</linearGradient>
<clipPath id="clip0">
<rect width="140" height="47.7844" fill="white" transform="translate(40 68)"/>
</clipPath>
</defs>
</svg>
