<svg width="32" height="33" viewBox="0 0 32 33" fill="none" xmlns="http://www.w3.org/2000/svg">
<path d="M16 21.1768C18.7614 21.1768 21 18.9382 21 16.1768C21 13.4153 18.7614 11.1768 16 11.1768C13.2386 11.1768 11 13.4153 11 16.1768C11 18.9382 13.2386 21.1768 16 21.1768Z" stroke="white" stroke-width="2" stroke-miterlimit="10"/>
<path d="M21.5 4.67676H10.5C7.18629 4.67676 4.5 7.36305 4.5 10.6768V21.6768C4.5 24.9905 7.18629 27.6768 10.5 27.6768H21.5C24.8137 27.6768 27.5 24.9905 27.5 21.6768V10.6768C27.5 7.36305 24.8137 4.67676 21.5 4.67676Z" stroke="white" stroke-width="2" stroke-linecap="round" stroke-linejoin="round"/>
<path d="M22.5 11.1768C23.3284 11.1768 24 10.5052 24 9.67676C24 8.84833 23.3284 8.17676 22.5 8.17676C21.6716 8.17676 21 8.84833 21 9.67676C21 10.5052 21.6716 11.1768 22.5 11.1768Z" fill="white"/>
</svg>
