<svg width="32" height="32" viewBox="0 0 32 32" fill="none" xmlns="http://www.w3.org/2000/svg">
<g clip-path="url(#clip0)">
<path d="M16.0011 32.0005C24.8373 32.0005 32.0005 24.8373 32.0005 16.0011C32.0005 7.16497 24.8373 0.00183105 16.0011 0.00183105C7.16497 0.00183105 0.00183105 7.16497 0.00183105 16.0011C0.00183105 24.8373 7.16497 32.0005 16.0011 32.0005Z" fill="white"/>
<path d="M31.0855 10.6652C31.0838 10.6602 31.0822 10.6559 31.0805 10.6513C29.0327 4.87744 23.7655 0.629443 17.4369 0.0655518C19.8857 1.40803 20.6008 5.66136 21.2274 10.6652C21.6554 14.083 21.6581 17.849 21.2355 21.2712C20.6143 26.3021 19.8961 30.5854 17.437 31.9335C23.777 31.3686 29.0517 27.1059 31.0914 21.3166C31.0967 21.3012 31.1013 21.286 31.1068 21.2712C31.6828 19.6202 31.9998 17.8473 31.9998 16C31.9998 14.1285 31.6757 12.3338 31.0855 10.6652Z" fill="#CF1B27"/>
<path d="M22.0511 10.6654C21.4249 5.66148 19.8858 1.40821 17.4369 0.0657321C16.9632 0.0237798 16.4842 0 15.9997 0C9.03942 0 3.12022 4.44533 0.919304 10.6514C0.917548 10.656 0.915994 10.6603 0.914237 10.6654C0.324134 12.3339 0 14.1286 0 16.0001C0 17.8477 0.317041 19.6203 0.893025 21.2713C0.898362 21.2862 0.903158 21.3013 0.908428 21.3167C3.10076 27.5388 9.028 31.9997 15.9996 31.9997C16.4842 31.9997 16.9631 31.976 17.4368 31.9335C19.8959 30.5855 21.4379 26.3021 22.0592 21.2712C22.4819 17.8489 22.4791 14.0832 22.0511 10.6654Z" fill="#DB2727"/>
<path d="M18.7387 7.74988H13.2369V24.2545H18.7387V7.74988Z" fill="white"/>
<path d="M24.2412 13.2517H7.73651V18.7535H24.2412V13.2517Z" fill="white"/>
</g>
<defs>
<clipPath id="clip0">
<rect width="32" height="32" fill="white"/>
</clipPath>
</defs>
</svg>
