<svg width="40" height="40" viewBox="0 0 40 40" fill="none" xmlns="http://www.w3.org/2000/svg">
<path d="M31.6667 8.33301H21.6667V3.33301H18.3333V8.33301H8.33334C5.57668 8.33301 3.33334 10.5763 3.33334 13.333V29.9997C3.33334 31.838 4.82834 33.333 6.66668 33.333H33.3333C35.1717 33.333 36.6667 31.838 36.6667 29.9997V13.333C36.6667 10.5763 34.4233 8.33301 31.6667 8.33301ZM8.33334 11.6663H31.6667C32.1087 11.6663 32.5326 11.8419 32.8452 12.1545C33.1578 12.4671 33.3333 12.891 33.3333 13.333L33.335 18.533C31.8417 18.913 30.8867 19.7563 30.1417 20.4197C29.2967 21.1697 28.7383 21.6663 27.495 21.6663C26.2533 21.6663 25.695 21.1697 24.85 20.4213C23.8583 19.5397 22.5017 18.333 19.9917 18.333C17.4833 18.333 16.1267 19.5397 15.135 20.4213C14.29 21.1713 13.7333 21.6663 12.4917 21.6663C11.2533 21.6663 10.6967 21.1713 9.85501 20.4213C9.11001 19.758 8.15834 18.913 6.66668 18.533V13.333C6.66668 12.891 6.84227 12.4671 7.15483 12.1545C7.46739 11.8419 7.89132 11.6663 8.33334 11.6663ZM6.66668 29.9997V22.143C6.98501 22.348 7.29001 22.5997 7.63834 22.9113C8.63001 23.793 9.98501 24.9997 12.4917 24.9997C15 24.9997 16.3567 23.793 17.3483 22.9113C18.1933 22.1613 18.75 21.6663 19.9917 21.6663C21.2333 21.6663 21.7917 22.163 22.6367 22.9113C23.6283 23.793 24.985 24.9997 27.495 24.9997C30.005 24.9997 31.3633 23.793 32.355 22.9113C32.7067 22.598 33.0133 22.3447 33.335 22.138L33.3367 29.9997H6.66668Z" fill="white"/>
</svg>
