<svg width="40" height="40" viewBox="0 0 40 40" fill="none" xmlns="http://www.w3.org/2000/svg">
<path d="M20 3.33301C10.81 3.33301 3.33334 10.8097 3.33334 19.9997C3.33334 29.1897 10.81 36.6663 20 36.6663C29.19 36.6663 36.6667 29.1897 36.6667 19.9997C36.6667 10.8097 29.19 3.33301 20 3.33301ZM20 33.333C12.6483 33.333 6.66668 27.3513 6.66668 19.9997C6.66668 12.648 12.6483 6.66634 20 6.66634C27.3517 6.66634 33.3333 12.648 33.3333 19.9997C33.3333 27.3513 27.3517 33.333 20 33.333Z" fill="white"/>
<path d="M20 18.3329C16.6667 18.3329 16.6667 17.2895 16.6667 16.6662C16.6667 15.8595 17.835 14.9995 20 14.9995C21.975 14.9995 22.31 16.0629 22.3333 16.6962L24 16.6662H25.6667C25.6667 14.9562 24.5567 12.5512 21.6667 11.8679V10.0195H18.3333V11.8079C15.0483 12.3595 13.3333 14.5195 13.3333 16.6662C13.3333 18.5329 14.2 21.6662 20 21.6662C23.3333 21.6662 23.3333 22.7929 23.3333 23.3329C23.3333 24.0245 22.3 24.9995 20 24.9995C16.9317 24.9995 16.685 23.5712 16.6667 23.3329H13.3333C13.3333 24.8629 14.435 27.5879 18.3333 28.1995V29.9995H21.6667V28.1912C24.9517 27.6395 26.6667 25.4795 26.6667 23.3329C26.6667 21.4662 25.8 18.3329 20 18.3329Z" fill="white"/>
</svg>
