<svg width="532" height="100" viewBox="0 0 532 100" fill="none" xmlns="http://www.w3.org/2000/svg">
<path d="M134.4 64.48C130.496 64.48 127.472 63.408 125.328 61.264C123.216 59.088 122.16 55.68 122.16 51.04C122.16 47.84 122.704 45.232 123.792 43.216C124.88 41.2 126.384 39.712 128.304 38.752C130.256 37.792 132.496 37.312 135.024 37.312C136.816 37.312 138.368 37.488 139.68 37.84C141.024 38.192 142.192 38.608 143.184 39.088L141.072 44.608C139.952 44.16 138.896 43.792 137.904 43.504C136.944 43.216 135.984 43.072 135.024 43.072C131.312 43.072 129.456 45.712 129.456 50.992C129.456 53.616 129.936 55.552 130.896 56.8C131.888 58.048 133.264 58.672 135.024 58.672C136.528 58.672 137.856 58.48 139.008 58.096C140.16 57.68 141.28 57.12 142.368 56.416V62.512C141.28 63.216 140.128 63.712 138.912 64C137.728 64.32 136.224 64.48 134.4 64.48ZM159.248 64.768C160.928 64.768 162.496 64.424 163.952 63.736C165.424 63.032 166.72 62.04 167.84 60.76V64H175.208V39.424H167.84V42.424C166.864 41.24 165.624 40.32 164.12 39.664C162.616 38.992 160.992 38.656 159.248 38.656C156.88 38.656 154.776 39.232 152.936 40.384C151.112 41.52 149.68 43.072 148.64 45.04C147.6 46.992 147.08 49.2 147.08 51.664C147.08 54.192 147.624 56.448 148.712 58.432C149.8 60.4 151.256 61.952 153.08 63.088C154.92 64.208 156.976 64.768 159.248 64.768ZM161.432 58.504C159.528 58.504 157.952 57.864 156.704 56.584C155.456 55.304 154.832 53.68 154.832 51.712C154.832 49.744 155.456 48.12 156.704 46.84C157.968 45.56 159.544 44.92 161.432 44.92C163.336 44.92 164.904 45.56 166.136 46.84C167.384 48.104 168.008 49.728 168.008 51.712C168.008 53.696 167.392 55.328 166.16 56.608C164.928 57.872 163.352 58.504 161.432 58.504ZM190.648 64.768C194.04 64.768 196.68 64.048 198.568 62.608C200.472 61.152 201.424 59.088 201.424 56.416C201.424 54.96 201.152 53.8 200.608 52.936C200.064 52.056 199.312 51.344 198.352 50.8C197.408 50.256 196.32 49.76 195.088 49.312C194.336 49.04 193.544 48.744 192.712 48.424C191.896 48.088 191.2 47.704 190.624 47.272C190.064 46.84 189.784 46.344 189.784 45.784C189.784 45.176 190.056 44.672 190.6 44.272C191.144 43.872 191.872 43.672 192.784 43.672C194.4 43.672 196.248 44.336 198.328 45.664L200.848 40.936C197.808 39.448 195.104 38.704 192.736 38.704C190.784 38.704 189.056 39.032 187.552 39.688C186.064 40.344 184.896 41.256 184.048 42.424C183.2 43.576 182.776 44.912 182.776 46.432C182.776 47.696 183.056 48.736 183.616 49.552C184.192 50.352 184.936 51.016 185.848 51.544C186.76 52.072 187.712 52.544 188.704 52.96C190.432 53.68 191.704 54.248 192.52 54.664C193.336 55.064 193.744 55.736 193.744 56.68C193.744 57.528 193.456 58.184 192.88 58.648C192.32 59.096 191.576 59.32 190.648 59.32C188.376 59.32 186.184 58.2 184.072 55.96L180.976 60.904C183.184 63.48 186.408 64.768 190.648 64.768ZM211.922 34.312C213.122 34.312 214.146 33.88 214.994 33.016C215.842 32.152 216.266 31.12 216.266 29.92C216.266 28.72 215.842 27.696 214.994 26.848C214.146 26 213.122 25.576 211.922 25.576C210.706 25.576 209.666 26 208.802 26.848C207.954 27.696 207.53 28.72 207.53 29.92C207.53 31.136 207.954 32.176 208.802 33.04C209.666 33.888 210.706 34.312 211.922 34.312ZM208.226 64H215.594V39.424H208.226V64ZM224.282 64H231.65V49.456C231.65 48.032 232.122 46.84 233.066 45.88C234.01 44.904 235.298 44.416 236.93 44.416C238.53 44.416 239.786 44.912 240.698 45.904C241.626 46.88 242.09 48.248 242.09 50.008V64H249.458V48.448C249.458 46.496 249.05 44.792 248.234 43.336C247.418 41.864 246.29 40.72 244.85 39.904C243.426 39.072 241.77 38.656 239.882 38.656C238.186 38.656 236.626 38.984 235.202 39.64C233.778 40.28 232.594 41.12 231.65 42.16V39.424H224.282V64ZM269.897 64.768C272.617 64.768 275.065 64.216 277.241 63.112C279.417 61.992 281.137 60.456 282.401 58.504C283.681 56.536 284.321 54.272 284.321 51.712C284.321 49.152 283.681 46.896 282.401 44.944C281.137 42.976 279.417 41.44 277.241 40.336C275.065 39.216 272.617 38.656 269.897 38.656C267.193 38.656 264.745 39.216 262.553 40.336C260.377 41.44 258.649 42.976 257.369 44.944C256.105 46.896 255.473 49.152 255.473 51.712C255.473 54.272 256.105 56.536 257.369 58.504C258.649 60.456 260.377 61.992 262.553 63.112C264.745 64.216 267.193 64.768 269.897 64.768ZM269.897 58.48C268.649 58.48 267.513 58.192 266.489 57.616C265.481 57.04 264.681 56.248 264.089 55.24C263.497 54.216 263.201 53.04 263.201 51.712C263.201 50.384 263.497 49.216 264.089 48.208C264.681 47.184 265.481 46.384 266.489 45.808C267.513 45.232 268.649 44.944 269.897 44.944C271.161 44.944 272.297 45.232 273.305 45.808C274.329 46.384 275.137 47.184 275.729 48.208C276.337 49.216 276.641 50.384 276.641 51.712C276.641 53.04 276.337 54.216 275.729 55.24C275.137 56.248 274.329 57.04 273.305 57.616C272.297 58.192 271.161 58.48 269.897 58.48ZM290.844 64H298.212V54.28L307.932 64H317.388L304.812 51.472L316.836 39.424H307.284L298.212 48.4V22.72H290.844V64ZM332.943 64.768C335.663 64.768 338.111 64.216 340.287 63.112C342.463 61.992 344.183 60.456 345.447 58.504C346.727 56.536 347.367 54.272 347.367 51.712C347.367 49.152 346.727 46.896 345.447 44.944C344.183 42.976 342.463 41.44 340.287 40.336C338.111 39.216 335.663 38.656 332.943 38.656C330.239 38.656 327.791 39.216 325.599 40.336C323.423 41.44 321.695 42.976 320.415 44.944C319.151 46.896 318.519 49.152 318.519 51.712C318.519 54.272 319.151 56.536 320.415 58.504C321.695 60.456 323.423 61.992 325.599 63.112C327.791 64.216 330.239 64.768 332.943 64.768ZM332.943 58.48C331.695 58.48 330.559 58.192 329.535 57.616C328.527 57.04 327.727 56.248 327.135 55.24C326.543 54.216 326.247 53.04 326.247 51.712C326.247 50.384 326.543 49.216 327.135 48.208C327.727 47.184 328.527 46.384 329.535 45.808C330.559 45.232 331.695 44.944 332.943 44.944C334.207 44.944 335.343 45.232 336.351 45.808C337.375 46.384 338.183 47.184 338.775 48.208C339.383 49.216 339.687 50.384 339.687 51.712C339.687 53.04 339.383 54.216 338.775 55.24C338.183 56.248 337.375 57.04 336.351 57.616C335.343 58.192 334.207 58.48 332.943 58.48ZM353.797 76.48H361.165V60.76C362.253 62.04 363.541 63.032 365.029 63.736C366.517 64.424 368.101 64.768 369.781 64.768C372.085 64.768 374.149 64.2 375.973 63.064C377.813 61.912 379.261 60.352 380.317 58.384C381.373 56.4 381.901 54.176 381.901 51.712C381.901 49.216 381.365 46.984 380.293 45.016C379.237 43.048 377.781 41.496 375.925 40.36C374.085 39.224 371.981 38.656 369.613 38.656C367.917 38.656 366.333 38.992 364.861 39.664C363.389 40.32 362.157 41.24 361.165 42.424V39.424H353.797V76.48ZM367.597 58.504C365.677 58.504 364.093 57.872 362.845 56.608C361.597 55.328 360.973 53.704 360.973 51.736C360.973 49.768 361.597 48.144 362.845 46.864C364.109 45.568 365.693 44.92 367.597 44.92C369.485 44.92 371.045 45.568 372.277 46.864C373.525 48.144 374.149 49.776 374.149 51.76C374.149 53.728 373.533 55.344 372.301 56.608C371.069 57.872 369.501 58.504 367.597 58.504ZM389.728 64H397.096V45.016H402.904V39.424H397.096V33.496C397.096 32.024 397.28 30.824 397.648 29.896C398.016 28.968 398.824 28.504 400.072 28.504C401.016 28.504 401.872 28.736 402.64 29.2L405.184 24.04C404.384 23.4 403.416 22.904 402.28 22.552C401.144 22.184 399.984 22 398.8 22C395.952 22 393.728 23.024 392.128 25.072C390.528 27.104 389.728 29.856 389.728 33.328V39.424H386.44V45.016H389.728V64ZM413.784 64.768C415.112 64.768 416.24 64.304 417.168 63.376C418.112 62.432 418.584 61.296 418.584 59.968C418.584 58.64 418.112 57.512 417.168 56.584C416.24 55.64 415.112 55.168 413.784 55.168C412.456 55.168 411.32 55.64 410.376 56.584C409.448 57.512 408.984 58.64 408.984 59.968C408.984 61.296 409.448 62.432 410.376 63.376C411.32 64.304 412.456 64.768 413.784 64.768ZM439.449 64.768C441.065 64.768 442.585 64.536 444.009 64.072C445.433 63.624 446.609 63.056 447.537 62.368L445.017 57.4C443.881 58.28 442.409 58.72 440.601 58.72C439.177 58.72 437.921 58.408 436.833 57.784C435.761 57.16 434.929 56.32 434.337 55.264C433.745 54.192 433.449 53.008 433.449 51.712C433.449 50.528 433.721 49.4 434.265 48.328C434.825 47.256 435.633 46.384 436.689 45.712C437.745 45.04 439.033 44.704 440.553 44.704C442.361 44.704 443.849 45.144 445.017 46.024L447.537 41.056C446.641 40.352 445.457 39.776 443.985 39.328C442.529 38.88 441.009 38.656 439.425 38.656C437.457 38.656 435.641 39.008 433.977 39.712C432.313 40.416 430.865 41.376 429.633 42.592C428.401 43.808 427.441 45.2 426.753 46.768C426.065 48.336 425.721 49.992 425.721 51.736C425.721 53.56 426.081 55.264 426.801 56.848C427.521 58.416 428.513 59.792 429.777 60.976C431.041 62.16 432.497 63.088 434.145 63.76C435.809 64.432 437.577 64.768 439.449 64.768ZM465.74 64.768C468.46 64.768 470.908 64.216 473.084 63.112C475.26 61.992 476.98 60.456 478.244 58.504C479.524 56.536 480.164 54.272 480.164 51.712C480.164 49.152 479.524 46.896 478.244 44.944C476.98 42.976 475.26 41.44 473.084 40.336C470.908 39.216 468.46 38.656 465.74 38.656C463.036 38.656 460.588 39.216 458.396 40.336C456.22 41.44 454.492 42.976 453.212 44.944C451.948 46.896 451.316 49.152 451.316 51.712C451.316 54.272 451.948 56.536 453.212 58.504C454.492 60.456 456.22 61.992 458.396 63.112C460.588 64.216 463.036 64.768 465.74 64.768ZM465.74 58.48C464.492 58.48 463.356 58.192 462.332 57.616C461.324 57.04 460.524 56.248 459.932 55.24C459.34 54.216 459.044 53.04 459.044 51.712C459.044 50.384 459.34 49.216 459.932 48.208C460.524 47.184 461.324 46.384 462.332 45.808C463.356 45.232 464.492 44.944 465.74 44.944C467.004 44.944 468.14 45.232 469.148 45.808C470.172 46.384 470.98 47.184 471.572 48.208C472.18 49.216 472.484 50.384 472.484 51.712C472.484 53.04 472.18 54.216 471.572 55.24C470.98 56.248 470.172 57.04 469.148 57.616C468.14 58.192 467.004 58.48 465.74 58.48ZM486.594 64H493.962V49.048C493.962 47.8 494.418 46.736 495.33 45.856C496.258 44.976 497.434 44.536 498.858 44.536C500.282 44.536 501.394 44.992 502.194 45.904C503.01 46.816 503.418 48.032 503.418 49.552V64H510.786V48.976C510.786 47.744 511.234 46.696 512.13 45.832C513.042 44.968 514.218 44.536 515.658 44.536C517.05 44.536 518.162 45 518.994 45.928C519.826 46.84 520.242 48.096 520.242 49.696V64H527.61V47.68C527.61 45.84 527.21 44.248 526.41 42.904C525.626 41.544 524.546 40.496 523.17 39.76C521.794 39.024 520.218 38.656 518.442 38.656C516.666 38.656 515.09 39.048 513.714 39.832C512.338 40.616 511.05 41.784 509.85 43.336C509.194 41.912 508.106 40.776 506.586 39.928C505.066 39.08 503.362 38.656 501.474 38.656C498.802 38.656 496.298 39.824 493.962 42.16V39.424H486.594V64Z" fill="#DB2727"/>
<g clip-path="url(#clip0)">
<path d="M50 100C77.6142 100 100 77.6142 100 50C100 22.3858 77.6142 0 50 0C22.3858 0 0 22.3858 0 50C0 77.6142 22.3858 100 50 100Z" fill="#DB2727"/>
<path d="M30.0548 44.828L13.2173 61.6655C10.9404 63.9424 10.9404 67.6682 13.2173 69.9452L42.7466 99.4745C45.115 99.8188 47.5361 100 49.9999 100C62.1537 100 73.2933 95.6622 81.9587 88.4522L38.3345 44.828C36.0576 42.551 32.3318 42.551 30.0548 44.828Z" fill="#B62323"/>
<path d="M100 50.0001C100 44.1803 99.0023 38.5944 97.1744 33.3999L82.4566 18.6821C81.3851 17.2702 79.6906 16.3536 77.7918 16.3536H53.9798C50.7597 16.3536 48.1252 18.9882 48.1252 22.2083V46.0202C48.1252 47.9188 49.0418 49.6134 50.4537 50.6848L85.2384 85.4696C94.3547 76.4124 100 63.8659 100 50.0001Z" fill="#B62323"/>
<path d="M55.172 69.9451L38.3345 86.7826C36.0576 89.0596 32.3318 89.0596 30.0548 86.7826L13.2173 69.9451C10.9404 67.6682 10.9404 63.9424 13.2173 61.6654L30.0548 44.828C32.3318 42.551 36.0576 42.551 38.3345 44.828L55.172 61.6654C57.449 63.9424 57.449 67.6682 55.172 69.9451Z" fill="white"/>
<path d="M55.1722 61.6654L38.3345 44.8277C36.0578 42.5511 32.3324 42.5511 30.0556 44.8275L21.6363 53.2466L46.7535 78.3638L55.1722 69.9451C57.4492 67.6681 57.4492 63.9423 55.1722 61.6654Z" fill="#E1E1E3"/>
<path d="M21.3556 69.6423C23.4728 69.6423 25.1892 67.9259 25.1892 65.8087C25.1892 63.6914 23.4728 61.9751 21.3556 61.9751C19.2383 61.9751 17.522 63.6914 17.522 65.8087C17.522 67.9259 19.2383 69.6423 21.3556 69.6423Z" fill="#DB2727"/>
<path d="M34.1994 56.8005C36.3166 56.8005 38.033 55.0841 38.033 52.9669C38.033 50.8496 36.3166 49.1333 34.1994 49.1333C32.0821 49.1333 30.3658 50.8496 30.3658 52.9669C30.3658 55.0841 32.0821 56.8005 34.1994 56.8005Z" fill="#FF3200"/>
<path d="M34.1915 82.4781C36.3087 82.4781 38.0251 80.7618 38.0251 78.6446C38.0251 76.5273 36.3087 74.811 34.1915 74.811C32.0742 74.811 30.3579 76.5273 30.3579 78.6446C30.3579 80.7618 32.0742 82.4781 34.1915 82.4781Z" fill="#DB2727"/>
<path d="M47.0333 69.6344C49.1505 69.6344 50.8669 67.918 50.8669 65.8008C50.8669 63.6835 49.1505 61.9672 47.0333 61.9672C44.916 61.9672 43.1997 63.6835 43.1997 65.8008C43.1997 67.918 44.916 69.6344 47.0333 69.6344Z" fill="#DB2727"/>
<path d="M77.7917 51.8747H53.9798C50.7596 51.8747 48.1251 49.2401 48.1251 46.02V22.2083C48.1251 18.9882 50.7596 16.3536 53.9798 16.3536H77.7917C81.0118 16.3536 83.6464 18.9882 83.6464 22.2083V46.0202C83.6464 49.2401 81.0118 51.8747 77.7917 51.8747Z" fill="white"/>
<path d="M83.6464 46.0202V22.2083C83.6464 18.9882 81.0118 16.3536 77.7917 16.3536H65.8847V51.8747H77.7917C81.0118 51.8747 83.6464 49.2401 83.6464 46.0202Z" fill="#E1E1E3"/>
<path d="M65.8866 40.7194C69.5351 40.7194 72.4929 37.7617 72.4929 34.1132C72.4929 30.4646 69.5351 27.5069 65.8866 27.5069C62.2381 27.5069 59.2804 30.4646 59.2804 34.1132C59.2804 37.7617 62.2381 40.7194 65.8866 40.7194Z" fill="#DB2727"/>
<path d="M72.4925 34.1142C72.4925 37.7615 69.5343 40.7197 65.8847 40.7197V27.5086C69.5343 27.5088 72.4925 30.4648 72.4925 34.1142Z" fill="#DB2727"/>
</g>
<defs>
<clipPath id="clip0">
<rect width="100" height="100" fill="white"/>
</clipPath>
</defs>
</svg>
