<svg width="195" height="32" viewBox="0 0 195 32" fill="none" xmlns="http://www.w3.org/2000/svg">
<path d="M115.856 15.3962L115.857 19.4612C115.859 19.7248 115.865 19.9158 115.887 20.0452C115.947 20.4075 116.037 20.7094 116.187 20.9207C116.458 21.3131 116.91 21.4943 117.542 21.4943C118.324 21.4943 118.866 21.1924 119.137 20.5886C119.257 20.3169 119.317 19.8037 119.317 19.0792V15.3962H120.762V19.3207H120.792C120.792 19.8641 120.762 20.2867 120.701 20.5584C120.641 20.8301 120.491 21.0716 120.31 21.3433C119.738 22.1282 118.806 22.5207 117.481 22.5207C116.127 22.5207 115.194 22.1282 114.653 21.3433C114.472 21.0716 114.352 20.7395 114.292 20.3169C114.262 20.1056 114.231 19.7433 114.231 19.2301V15.3962H115.856ZM151.606 15.4263C152.118 15.4263 152.509 15.4565 152.75 15.4867C153.171 15.5471 153.532 15.6377 153.803 15.8188C154.345 16.1509 154.616 16.6641 154.616 17.298C154.616 18.1433 154.134 18.8075 153.201 19.2603L155.187 22.249L153.502 22.5207L151.847 19.5622H150.884V22.3999H149.259V15.4263H151.606ZM143.271 15.2754C144.384 15.2754 145.317 15.6075 146.069 16.2716C146.792 16.966 147.183 17.8112 147.183 18.8377C147.183 19.8943 146.822 20.7697 146.1 21.4339C145.347 22.1584 144.384 22.4905 143.181 22.4905C141.977 22.4905 141.014 22.1282 140.262 21.4339C139.539 20.7395 139.178 19.8943 139.178 18.8377C139.178 17.7811 139.569 16.9358 140.322 16.2716C141.104 15.6075 142.067 15.2754 143.271 15.2754ZM166.713 15.4263V16.3622H164.215V22.3999H162.59V16.3622H160.123V15.4263H166.713ZM158.528 15.4263V22.3999H156.903V15.4263H158.528ZM172.581 15.3358L173.995 15.4867L171.347 19.5018V22.3999H169.722V19.5018L167.315 15.5773L169 15.3358L170.655 18.5358L172.581 15.3358ZM132.046 15.4263V18.0829H135.417V15.4263H137.042V22.3999H135.417V19.049H132.046V22.3999H130.421V15.4263H132.046ZM128.856 15.4263V16.3622H126.359V22.3999H124.734V16.3622H122.266V15.4263H128.856ZM109.748 15.4263L112.787 22.3999H111.042L110.289 20.498H107.4L106.558 22.3999H105.234L108.514 15.4263H109.748ZM143.15 16.3018C142.398 16.3018 141.826 16.5735 141.405 17.1471C141.074 17.6301 140.894 18.2339 140.894 18.898C140.894 19.6226 141.074 20.1962 141.405 20.6792C141.826 21.2528 142.398 21.5245 143.181 21.5245C143.873 21.5245 144.444 21.2829 144.836 20.8301C145.227 20.3471 145.437 19.7131 145.437 18.9282C145.437 18.1131 145.227 17.449 144.836 16.9962C144.414 16.5433 143.873 16.3018 143.15 16.3018ZM108.935 16.9358L107.762 19.6226H109.988L108.935 16.9358ZM151.486 16.3018H150.884V18.6867H151.366C151.937 18.6867 152.359 18.566 152.6 18.3546C152.87 18.1131 152.991 17.8112 152.991 17.3886C152.991 16.966 152.84 16.6641 152.539 16.4829C152.329 16.3622 151.998 16.3018 151.486 16.3018ZM192.141 5.88672C192.984 5.88672 193.766 6.06785 194.519 6.43011L194.007 7.24521C193.465 6.97351 192.894 6.85276 192.292 6.85276C191.389 6.85276 190.667 7.09427 190.095 7.57728C189.553 8.0603 189.252 8.66408 189.252 9.44898C189.252 10.2339 189.523 10.8679 190.035 11.3811C190.546 11.8641 191.238 12.1358 192.081 12.1358C192.412 12.1358 192.773 12.0754 193.134 11.9546V9.81125H194.759V12.7094C193.766 12.9811 192.863 13.132 192.021 13.132C190.727 13.132 189.643 12.7999 188.801 12.1056C187.958 11.4112 187.537 10.566 187.537 9.50936C187.537 8.45276 187.958 7.60747 188.831 6.91313C189.704 6.21879 190.787 5.88672 192.141 5.88672ZM150.553 5.88672C151.396 5.88672 152.178 6.06785 152.931 6.43011L152.419 7.24521C151.877 6.97351 151.306 6.85276 150.704 6.85276C149.801 6.85276 149.079 7.09427 148.507 7.57728C147.965 8.0603 147.664 8.66408 147.664 9.44898C147.664 10.2339 147.935 10.8679 148.447 11.3811C148.958 11.8641 149.65 12.1358 150.493 12.1358C150.824 12.1358 151.185 12.0754 151.546 11.9546V9.81125H153.171V12.7094C152.178 12.9811 151.275 13.132 150.433 13.132C149.139 13.132 148.056 12.7999 147.213 12.1056C146.37 11.4112 145.949 10.566 145.949 9.50936C145.949 8.45276 146.37 7.60747 147.243 6.91313C148.116 6.21879 149.199 5.88672 150.553 5.88672ZM165.359 6.06785L167.856 11.1999L170.475 6.06785H172.25V13.0414H170.685V9.20747C170.685 8.90559 170.715 8.36219 170.745 7.60747C170.535 8.12068 170.324 8.63389 170.083 9.08672L168.067 13.0716H167.345L165.389 9.08672C165.269 8.81502 165.058 8.332 164.757 7.60747C164.787 8.21125 164.817 8.75464 164.817 9.20747V13.0414H163.523V6.06785H165.359ZM106.889 6.06785L109.387 11.1999L112.005 6.06785H113.78V13.0414H112.215V9.20747C112.215 8.90559 112.245 8.36219 112.275 7.60747C112.065 8.12068 111.854 8.63389 111.613 9.08672L109.597 13.0716H108.875L106.919 9.08672C106.799 8.81502 106.588 8.332 106.287 7.60747C106.317 8.21125 106.347 8.75464 106.347 9.20747V13.0414H105.053V6.06785H106.889ZM119.197 6.06785L122.236 13.0414H120.491L119.738 11.1395H116.85L116.007 13.0414H114.683L117.963 6.06785H119.197ZM134.544 6.06785V7.0037H132.046V13.0414H130.421V7.0037H127.954V6.06785H134.544ZM139.028 6.06785L142.067 13.0414H140.322L139.569 11.1395H136.681L135.838 13.0414H134.514L137.794 6.06785H139.028ZM159.009 6.06785L162.049 13.0414H160.303L159.551 11.1395H156.662L155.819 13.0414H154.495L157.775 6.06785H159.009ZM176.312 6.06785V13.0414H174.687V6.06785H176.312ZM179.833 6.06785L184.167 10.9282V6.06785H185.461V13.0414H184.377L180.014 8.18106V13.0414H178.75V6.06785H179.833ZM124.734 6.06785V12.1056H127.924V13.0414H123.109V6.06785H124.734ZM118.384 7.57728L117.211 10.2641H119.437L118.384 7.57728ZM138.215 7.57728L137.042 10.2641H139.269L138.215 7.57728ZM158.167 7.57728L156.993 10.2641H159.22L158.167 7.57728Z" fill="white"/>
<path d="M79.4143 5.2832C80.2569 5.2832 80.3171 5.64554 80.0162 6.33988C79.7755 6.85309 79.5648 7.36629 79.4745 7.90969C79.2639 9.17761 78.3611 8.93611 77.5185 8.90592C76.6759 8.87573 76.3449 8.96629 76.8866 9.96252C78.5417 12.9814 77.5185 16.121 74.5694 17.8116C72.463 19.0191 70.1759 19.0795 67.8588 19.0191C67.3773 19.0191 66.625 18.687 66.4745 19.5021C66.3542 20.3172 66.9861 20.6191 67.6481 20.8304C70.0555 21.555 72.6134 21.404 75.0509 21.9776C76.0741 22.2493 77.0972 22.521 77.9699 23.1248C80.0162 24.5437 80.287 26.9889 78.5718 28.8304C76.7662 30.7625 74.3889 31.4569 71.831 31.6682C71.5602 31.6984 71.2292 31.6682 71.0185 31.9399H65.9028C64.6088 31.4569 63.1643 31.487 61.9005 30.8833C60.3657 30.1286 58.8912 29.3437 58.6505 27.4418C58.3796 25.4493 59.463 24.2418 61.1181 23.3965C61.4792 23.2154 61.75 23.0644 61.4792 22.4908C60.4861 20.3474 60.6366 19.8644 62.5324 18.355C62.9838 17.9927 63.4051 17.8116 62.6829 17.2984C60.456 15.6984 59.4028 13.5852 60.2153 10.8984C61.088 8.03044 63.4051 6.79271 66.1736 6.2795C68.2801 5.88705 70.3866 5.88705 72.4028 6.64177C73.0046 6.88328 73.456 6.76252 73.9375 6.43044C75.4184 5.37702 77.092 5.29024 78.8074 5.28365L79.4143 5.2832ZM66.3542 24.5738C65.4213 24.4229 64.6389 24.3323 64.3079 25.4191C63.9768 26.4455 64.6088 27.0795 65.3611 27.5021C66.5648 28.1965 67.8889 28.3474 69.3032 28.2569C70.537 28.3474 71.8009 28.1965 72.9143 27.5927C73.8773 27.0795 73.8773 26.3248 72.9143 25.8116C72.4028 25.5399 71.8009 25.3587 71.2292 25.2682C69.6042 25.0267 67.9491 24.9059 66.3542 24.5738ZM84.8912 6.79271C88.1713 5.85686 91.5116 5.67573 94.8218 6.58139C97.9514 7.42667 99.2755 9.26818 99.2755 12.4984V17.0267C99.3356 18.687 99.0949 20.6493 99.456 22.5814C99.5764 23.2154 99.3958 23.4267 98.794 23.4569H95.0324C94.882 23.4569 94.6713 23.487 94.6111 23.3965C93.4375 21.4946 92.1736 22.9437 90.9398 23.3059C87.8403 24.1814 84.8611 24.1512 82.3935 21.7663C79.956 19.4116 80.4676 15.8493 83.3866 14.0984C85.2222 13.0116 87.2384 12.7701 89.2847 12.6191C89.7963 12.5889 90.3079 12.6493 90.7894 12.5889C91.4815 12.4984 92.5347 12.921 92.6852 11.9248C92.8657 10.8078 91.8125 10.355 90.9398 10.2342C88.9838 9.93233 87.0278 9.99271 85.162 10.687C84.4097 10.9587 83.9884 10.9587 83.5972 10.204C81.9722 7.0946 81.5509 7.75875 84.8912 6.79271ZM31.6273 7.45686C35.2083 5.76629 38.7593 5.07195 42.1296 8.00026C42.6713 8.48327 43.0625 8.03044 43.4838 7.81912C46.0417 6.46063 48.6597 5.7361 51.5787 6.21912C54.7083 6.73233 56.7245 8.81535 56.8148 12.0154C56.9051 15.4267 56.8148 18.838 56.8449 22.2795C56.8449 23.0946 56.544 23.4569 55.7014 23.4267C54.287 23.3965 52.9028 23.3663 51.4884 23.4267C50.5556 23.4569 50.2847 23.0946 50.2847 22.1889C50.3148 19.3814 50.2847 16.5437 50.2847 13.7361C50.2847 11.2304 49.1111 10.2644 46.6736 10.7474C46.2222 10.838 45.8009 10.9286 45.3495 11.0493C44.3264 11.2908 43.7847 11.804 43.8148 13.0418C43.9352 16.0003 43.8148 18.9889 43.875 21.9474C43.9051 23.0342 43.6343 23.5172 42.4606 23.4569C41.1065 23.3663 39.7523 23.3965 38.3981 23.4569C37.5255 23.487 37.2847 23.155 37.2847 22.3097C37.3148 19.5021 37.3148 16.6644 37.2847 13.8569C37.2546 11.3512 36.1412 10.4153 33.6736 10.7776C30.9352 11.2003 30.6644 11.5021 30.6644 14.3097C30.6644 16.9361 30.6343 19.5323 30.6944 22.1587C30.7245 23.1248 30.3935 23.5172 29.4005 23.4569C28.1065 23.3965 26.7824 23.3965 25.4884 23.4569C24.5255 23.5172 24.2847 23.0946 24.3148 22.2191C24.375 19.804 24.3449 17.3889 24.3449 14.9738C24.3449 12.5587 24.375 10.1437 24.3148 7.72856C24.2847 6.8229 24.5255 6.43044 25.4884 6.49082C26.6018 6.58139 27.6852 6.52101 28.7986 6.52101C29.1898 6.52101 29.6713 6.43044 29.7917 6.94365C30.1227 8.24177 30.7847 7.84931 31.6273 7.45686ZM92.956 17.087C92.956 15.3965 91.7824 16.0003 91.0903 15.9097C90.2176 15.9097 89.4653 15.9399 88.7431 16.2116C87.8704 16.5738 87.1782 17.1172 87.3588 18.1135C87.5093 19.0191 88.2917 19.5021 89.2245 19.5625C89.8264 19.6229 90.4282 19.5927 91.0301 19.5625C92.7153 19.4418 92.9259 19.0493 92.956 17.087ZM68.7616 10.0833C66.956 10.0833 65.8727 11.0191 65.9028 12.6191C65.9329 14.0078 67.3171 15.2455 68.8819 15.2455C70.5671 15.2455 71.7106 14.1587 71.6806 12.5587C71.6505 10.9889 70.5972 10.0833 68.7616 10.0833Z" fill="white"/>
<path d="M18.868 16.6034C18.9884 16.6336 19.0786 16.694 19.199 16.7242V26.0223C19.199 26.8676 18.8379 27.6223 18.206 28.1355C16.7916 29.343 15.1365 30.2185 13.5416 31.1543C13.331 31.2751 13.0601 31.3959 12.8495 31.1845C12.5185 30.8525 12.8194 30.5204 12.9398 30.2185L17.5439 19.5921C17.9953 18.5959 18.4166 17.5996 18.868 16.6034ZM0.0902225 10.6864C0.361056 10.2336 0.812445 10.5355 1.17356 10.626C2.46754 10.9581 3.76152 11.2902 5.0555 11.6223C5.26615 11.6525 5.4768 11.7128 5.68744 11.7732L16.7314 15.0336C17.3935 15.2147 18.0555 15.426 19.1087 15.8185C14.7453 17.0562 10.743 18.2034 6.74069 19.3506C5.868 19.6223 5.02541 19.9242 4.18282 20.1959L3.64115 20.3166C2.94902 20.4676 2.25689 20.6487 1.56476 20.8298C1.3842 20.8902 1.17356 20.9204 0.993 20.9808C0.75226 21.0411 0.451334 21.1317 0.240685 21.0109C0.1805 20.9506 0.120315 20.8902 0.0601299 20.7996C-0.090333 20.4977 0.210593 20.2562 0.421241 20.0449C1.92587 18.5355 3.12957 16.7242 5.41661 15.8487L5.62726 15.7581C5.61723 15.7531 5.60636 15.7481 5.59494 15.743L5.41661 15.8185V15.6676L5.09361 15.5443C2.99255 14.678 1.91441 12.9419 0.481426 11.5619C0.240685 11.3506 -0.120426 11.0487 0.0902225 10.6864ZM12.8495 0.331701C13.2106 -0.0305634 13.5115 0.331701 13.7824 0.482644C15.1365 1.26755 16.4606 2.05246 17.7546 2.92793C18.6574 3.56189 19.199 4.46755 19.2291 5.61472V14.7921C19.1087 14.8223 18.9884 14.8826 18.868 14.9128C17.9652 12.86 17.0925 10.8072 16.1898 8.75434C15.1064 6.24868 14.0231 3.77321 12.9398 1.29774C12.7893 0.995852 12.5185 0.663776 12.8495 0.331701Z" fill="#FD0000"/>
</svg>
